          <svg
            width="31"
            height="31"
            viewBox="0 0 31 31"
            fill="none"
            xmlns="http://www.w3.org/2000/svg"
          >
            <circle
              cx="11.5059"
              cy="12.0957"
              r="2.5"
              stroke="#777777"
              stroke-width="1.5"
            ></circle>
            <path
              stroke="#777777"
              d="M16.5059 19.5957C16.5059 20.9764 16.5059 22.0957 11.5059 22.0957C6.50586 22.0957 6.50586 20.9764 6.50586 19.5957C6.50586 18.215 8.74444 17.0957 11.5059 17.0957C14.2673 17.0957 16.5059 18.215 16.5059 19.5957Z"
              stroke-width="1.5"
            ></path>
            <path
              stroke="#777777"
              d="M2.75586 15.8457C2.75586 11.1317 2.75586 8.77464 4.22033 7.31017C5.68479 5.8457 8.04181 5.8457 12.7559 5.8457H17.7559C22.4699 5.8457 24.8269 5.8457 26.2914 7.31017C27.7559 8.77464 27.7559 11.1317 27.7559 15.8457C27.7559 20.5597 27.7559 22.9168 26.2914 24.3812C24.8269 25.8457 22.4699 25.8457 17.7559 25.8457H12.7559C8.04181 25.8457 5.68479 25.8457 4.22033 24.3812C2.75586 22.9168 2.75586 20.5597 2.75586 15.8457Z"
              stroke-width="1.5"
            ></path>
            <path
              d="M24.0059 15.8457H19.0059"
              stroke="#777777"
              stroke-width="1.5"
              stroke-linecap="round"
            ></path>
            <path
              d="M24.0059 12.0957H17.7559"
              stroke="#777777"
              stroke-width="1.5"
              stroke-linecap="round"
            ></path>
            <path
              d="M24.0059 19.5957H20.2559"
              stroke="#777777"
              stroke-width="1.5"
              stroke-linecap="round"
            ></path>
          </svg>
