          <svg
            width="31"
            height="31"
            viewBox="0 0 31 31"
            fill="none"
            xmlns="http://www.w3.org/2000/svg"
          >
            <path
              d="M2.75586 15.8457C2.75586 11.1317 2.75586 8.77464 4.22033 7.31017C5.68479 5.8457 8.04181 5.8457 12.7559 5.8457H17.7559C22.4699 5.8457 24.8269 5.8457 26.2914 7.31017C27.7559 8.77464 27.7559 11.1317 27.7559 15.8457V18.3457C27.7559 23.0597 27.7559 25.4168 26.2914 26.8812C24.8269 28.3457 22.4699 28.3457 17.7559 28.3457H12.7559C8.04181 28.3457 5.68479 28.3457 4.22033 26.8812C2.75586 25.4168 2.75586 23.0597 2.75586 18.3457V15.8457Z"
              stroke="#777777"
              stroke-width="1.5"
            ></path>
            <path
              d="M9.00586 5.8457V3.9707"
              stroke="#777777"
              stroke-width="1.5"
              stroke-linecap="round"
            ></path>
            <path
              d="M21.5059 5.8457V3.9707"
              stroke="#777777"
              stroke-width="1.5"
              stroke-linecap="round"
            ></path>
            <path
              d="M3.38086 12.0957H27.1309"
              stroke="#777777"
              stroke-width="1.5"
              stroke-linecap="round"
            ></path>
            <path
              stroke="#777777"
              d="M22.7559 22.0957C22.7559 22.7861 22.1962 23.3457 21.5059 23.3457C20.8155 23.3457 20.2559 22.7861 20.2559 22.0957C20.2559 21.4053 20.8155 20.8457 21.5059 20.8457C22.1962 20.8457 22.7559 21.4053 22.7559 22.0957Z"
              fill="#777777"
            ></path>
            <path
              stroke="#777777"
              d="M22.7559 17.0957C22.7559 17.7861 22.1962 18.3457 21.5059 18.3457C20.8155 18.3457 20.2559 17.7861 20.2559 17.0957C20.2559 16.4053 20.8155 15.8457 21.5059 15.8457C22.1962 15.8457 22.7559 16.4053 22.7559 17.0957Z"
              fill="#777777"
            ></path>
            <path
              stroke="#777777"
              d="M16.5059 22.0957C16.5059 22.7861 15.9462 23.3457 15.2559 23.3457C14.5655 23.3457 14.0059 22.7861 14.0059 22.0957C14.0059 21.4053 14.5655 20.8457 15.2559 20.8457C15.9462 20.8457 16.5059 21.4053 16.5059 22.0957Z"
              fill="#777777"
            ></path>
            <path
              stroke="#777777"
              d="M16.5059 17.0957C16.5059 17.7861 15.9462 18.3457 15.2559 18.3457C14.5655 18.3457 14.0059 17.7861 14.0059 17.0957C14.0059 16.4053 14.5655 15.8457 15.2559 15.8457C15.9462 15.8457 16.5059 16.4053 16.5059 17.0957Z"
              fill="#777777"
            ></path>
            <path
              stroke="#777777"
              d="M10.2559 22.0957C10.2559 22.7861 9.69622 23.3457 9.00586 23.3457C8.3155 23.3457 7.75586 22.7861 7.75586 22.0957C7.75586 21.4053 8.3155 20.8457 9.00586 20.8457C9.69622 20.8457 10.2559 21.4053 10.2559 22.0957Z"
              fill="#777777"
            ></path>
            <path
              stroke="#777777"
              d="M10.2559 17.0957C10.2559 17.7861 9.69622 18.3457 9.00586 18.3457C8.3155 18.3457 7.75586 17.7861 7.75586 17.0957C7.75586 16.4053 8.3155 15.8457 9.00586 15.8457C9.69622 15.8457 10.2559 16.4053 10.2559 17.0957Z"
              fill="#777777"
            ></path>
          </svg>
