          <svg
            width="31"
            height="31"
            viewBox="0 0 31 31"
            fill="none"
            xmlns="http://www.w3.org/2000/svg"
          >
            <g clip-path="url(#clip0_8981_9304)">
              <circle
                cx="15.2559"
                cy="8.3457"
                r="5"
                stroke="#D3427A"
                stroke-width="1.5"
              ></circle>
              <path
                d="M22.7559 12.0957C24.8269 12.0957 26.5059 10.6966 26.5059 8.9707C26.5059 7.24481 24.8269 5.8457 22.7559 5.8457"
                stroke="#D3427A"
                stroke-width="1.5"
                stroke-linecap="round"
              ></path>
              <path
                d="M7.75586 12.0957C5.68479 12.0957 4.00586 10.6966 4.00586 8.9707C4.00586 7.24481 5.68479 5.8457 7.75586 5.8457"
                stroke="#D3427A"
                stroke-width="1.5"
                stroke-linecap="round"
              ></path>
              <path
                d="M21.7525 19.5957C22.3906 20.3311 22.7559 21.185 22.7559 22.0957C22.7559 24.8571 19.398 27.0957 15.2559 27.0957C11.1137 27.0957 7.75586 24.8571 7.75586 22.0957C7.75586 19.3343 11.1137 17.0957 15.2559 17.0957C15.6817 17.0957 16.0993 17.1194 16.5059 17.1648"
                stroke="#D3427A"
                stroke-width="1.5"
                stroke-linecap="round"
              ></path>
              <path
                d="M25.2559 24.5957C27.4487 24.1148 29.0059 22.897 29.0059 21.4707C29.0059 20.0444 27.4487 18.8266 25.2559 18.3457"
                stroke="#D3427A"
                stroke-width="1.5"
                stroke-linecap="round"
              ></path>
              <path
                d="M5.25586 24.5957C3.06305 24.1148 1.50586 22.897 1.50586 21.4707C1.50586 20.0444 3.06305 18.8266 5.25586 18.3457"
                stroke="#D3427A"
                stroke-width="1.5"
                stroke-linecap="round"
              ></path>
            </g>
            <defs>
              <clipPath id="clip0_8981_9304">
                <rect
                  width="30"
                  height="30"
                  fill="white"
                  transform="translate(0.255859 0.845703)"
                ></rect>
              </clipPath>
            </defs>
          </svg>
