          <svg
            width="31"
            height="31"
            viewBox="0 0 31 31"
            fill="none"
            xmlns="http://www.w3.org/2000/svg"
          >
            <g clip-path="url(#clip0_8981_9317)">
              <path
                stroke="#777777"
                d="M5.55391 28.885C5.08748 28.6918 4.85355 28.4379 4.79703 28.0652C4.77414 27.9135 4.78201 27.7397 4.81921 27.5608C5.01379 26.633 5.19192 25.7967 5.39652 24.9575C5.68196 23.7872 6.40879 22.9981 7.55698 22.6125C8.48626 22.3006 9.45203 22.008 10.3048 21.7498C11.0831 21.5144 11.5946 21.0058 11.8242 20.2382C11.9409 19.849 12.051 19.512 12.1612 19.2087C12.2528 18.9569 12.1884 18.7659 11.9687 18.6414C11.8822 18.5921 11.7963 18.5312 11.7055 18.4669C11.6611 18.4354 11.6161 18.4039 11.5681 18.371L11.4508 18.2909L11.3313 18.3674C10.8528 18.6743 10.3656 18.8238 9.84263 18.8238C9.81902 18.8238 9.79541 18.8238 9.77181 18.8231C8.56496 18.7916 7.51692 17.9267 7.28084 16.7671C7.03189 15.5452 7.62995 14.3556 8.73522 13.8734C9.13869 13.6974 9.22025 13.4391 9.21953 13.1058V12.9427C9.21667 12.0341 9.21452 11.0941 9.26675 10.1763C9.33614 8.95656 9.77467 7.84557 10.5709 6.87479C10.7733 6.62798 10.8642 6.37116 10.8656 6.04065C10.8749 4.01397 12.2206 2.37575 14.2143 1.96512C14.4755 1.91146 14.743 1.88428 15.0084 1.88428C16.0421 1.88428 17.078 2.30564 17.8499 3.04034C18.644 3.7965 19.0933 4.79803 19.1154 5.86038C19.1247 6.30964 19.2456 6.64301 19.5196 6.97351C20.2264 7.82625 20.6285 8.90505 20.7157 10.1799C20.7672 10.936 20.7723 11.7108 20.7766 12.4605C20.778 12.7395 20.7801 13.0178 20.7837 13.2968C20.7866 13.4864 20.8266 13.6774 21.102 13.7897C21.821 14.0816 22.3611 14.6253 22.623 15.3192C22.8769 15.9931 22.8354 16.7278 22.5056 17.3881C22.0642 18.2716 21.1772 18.8203 20.1914 18.8203C19.6949 18.8203 19.1984 18.6793 18.7563 18.4139C18.7391 18.4039 18.722 18.3939 18.6998 18.3817L18.5517 18.2995L17.4994 18.9905L17.5659 19.1536C17.6296 19.3103 17.6925 19.4734 17.7533 19.6315C17.8993 20.0092 18.0502 20.3998 18.2384 20.7725C18.4551 21.2003 18.8536 21.4958 19.4245 21.6518C19.7364 21.7369 20.0483 21.8213 20.3602 21.9064C20.9411 22.0638 21.542 22.2269 22.1315 22.3915C23.4084 22.7477 24.1868 23.5489 24.5116 24.8402C24.7498 25.7881 24.9766 26.7367 25.1669 27.5386C25.3192 28.1811 25.1318 28.5252 24.425 28.8843H5.55391V28.885ZM6.90884 26.0356C6.81584 26.0356 6.7393 26.0392 6.66847 26.0471C6.54543 26.0599 6.34297 26.1601 6.29862 26.3325C6.22851 26.6058 6.17128 26.8755 6.11048 27.1602C6.09116 27.2525 6.07113 27.3448 6.0511 27.4385L5.99458 27.6989H23.9929L23.9278 27.4335C23.8649 27.1759 23.8041 26.9206 23.744 26.6673C23.6023 26.07 23.4685 25.5055 23.3104 24.9332C23.1259 24.2643 22.6673 23.7958 21.9834 23.5776C21.6314 23.4652 21.2616 23.3644 20.8839 23.2778C20.8581 23.2721 20.8302 23.2685 20.8009 23.2685C20.675 23.2685 20.499 23.3315 20.4081 23.4524C20.1885 23.7428 19.9596 24.0683 19.7078 24.4475C18.996 25.5205 18.0016 26.0428 16.6688 26.0428H16.6509C15.4806 26.0385 14.2115 26.0371 12.6577 26.0371C11.7477 26.0371 10.8377 26.0371 9.92776 26.0385C9.01779 26.0385 8.10783 26.0399 7.19786 26.0399C7.15064 26.0399 7.10414 26.0392 7.05693 26.0378C7.00685 26.0371 6.95677 26.0356 6.90741 26.0356H6.90884ZM13.1813 19.8747C13.0926 20.138 13.0061 20.3977 12.9216 20.6581C12.5582 21.7798 11.8357 22.4966 10.7133 22.85C10.1395 23.0303 9.56649 23.2106 8.99275 23.3901L7.98478 23.7063C7.48759 23.8623 7.13347 24.1162 6.8695 24.5061L6.68207 24.783L7.01186 24.8381C7.0369 24.8424 7.0555 24.8459 7.07052 24.8488C7.10414 24.8552 7.13276 24.861 7.16924 24.861H9.30108C10.2776 24.8617 11.2541 24.8624 12.2306 24.8624C14.0548 24.8624 15.5357 24.861 16.8899 24.8581C17.5273 24.8567 18.0731 24.6049 18.468 24.1298C18.6504 23.9109 18.8135 23.6763 18.9724 23.4488C19.0425 23.3479 19.1126 23.2471 19.1848 23.1476L19.305 22.9809L19.144 22.8536C19.1347 22.8457 19.1269 22.8386 19.1197 22.8328C19.094 22.81 19.0561 22.7749 18.9974 22.7563C17.9043 22.3986 17.1903 21.6596 16.814 20.4957C16.7439 20.2789 16.6645 20.0622 16.588 19.8518C16.5522 19.7538 16.5157 19.6544 16.48 19.5542L16.4163 19.3754L16.231 19.4169C15.8218 19.5092 15.4083 19.5557 15.002 19.5557C14.5241 19.5557 14.0527 19.4942 13.5605 19.3675L13.3666 19.3175C13.3666 19.3175 13.2214 19.7531 13.1806 19.874L13.1813 19.8747ZM10.3885 11.6092C10.3885 11.8081 10.3885 12.0055 10.387 12.2023C10.3856 12.6336 10.3842 13.0793 10.3899 13.5164C10.4006 14.3777 10.616 15.1947 11.0287 15.9459C11.855 17.4474 13.3645 18.3803 14.9669 18.3803C15.2931 18.3803 15.6215 18.3424 15.9427 18.2666C17.631 17.8702 18.7849 16.7664 19.373 14.9844C19.652 14.1395 19.6276 13.2746 19.6048 12.439C19.5976 12.1808 19.5904 11.914 19.5926 11.6536C19.5933 11.5534 19.5296 11.4912 19.5089 11.4711L19.511 11.474L19.4467 11.3953H10.3892V11.6099L10.3885 11.6092ZM19.5039 17.471L19.7113 17.559C19.8616 17.6227 20.0225 17.6549 20.1899 17.6549C20.7279 17.6549 21.2287 17.3308 21.4662 16.8286C21.7824 16.1605 21.542 15.3557 20.9318 15.0345L20.7358 14.9314L19.5039 17.471ZM9.12009 15.0209C8.50916 15.3042 8.23302 16.0811 8.50415 16.7535C8.72234 17.2943 9.23885 17.6442 9.81974 17.6442C9.99 17.6442 10.1588 17.6141 10.3227 17.5555L10.5637 17.4689L10.4357 17.2464C10.372 17.1355 10.3069 17.0275 10.2432 16.9202C10.1016 16.6827 9.96711 16.4581 9.85336 16.2249C9.73604 15.9838 9.6366 15.7241 9.54074 15.473C9.49782 15.3607 9.45418 15.2484 9.40982 15.136L9.32541 14.9264L9.12009 15.0216V15.0209ZM14.9898 5.84679C14.9269 5.84679 14.8632 5.84822 14.7995 5.85108C12.6419 5.94551 10.5065 7.98721 10.4893 9.97312L10.4872 10.1899H19.5425L19.5218 9.95595C19.3486 8.01225 17.445 5.84679 14.9898 5.84679ZM15.017 3.06895C13.7679 3.06895 12.6262 3.85874 12.2406 4.98904L12.0782 5.46477L12.5339 5.2523C13.3559 4.86957 14.1872 4.6757 15.0048 4.6757C15.8225 4.6757 16.608 4.85813 17.4142 5.21796L17.8006 5.39037L17.7118 4.97688C17.5094 4.03472 16.3354 3.1455 15.1994 3.07396C15.1393 3.07038 15.0778 3.06824 15.017 3.06824V3.06895Z"
                fill="#777777"
              ></path>
            </g>
            <defs>
              <clipPath id="clip0_8981_9317">
                <rect
                  width="20.4314"
                  height="27"
                  fill="white"
                  transform="translate(4.78418 1.88525)"
                ></rect>
              </clipPath>
            </defs>
          </svg>
