          <svg
            width="31"
            height="31"
            viewBox="0 0 31 31"
            fill="none"
            xmlns="http://www.w3.org/2000/svg"
          >
            <path
              d="M27.7559 15.8457C27.7559 22.7493 22.1594 28.3457 15.2559 28.3457C8.3523 28.3457 2.75586 22.7493 2.75586 15.8457C2.75586 8.94214 8.3523 3.3457 15.2559 3.3457"
              stroke="#777777"
              stroke-width="1.5"
              stroke-linecap="round"
              stroke-linejoin="round"
            ></path>
            <path
              d="M24.0058 6.76562L24.2202 7.42547H24.914L24.3527 7.83322L24.5672 8.4931L24.0058 8.08529L23.4445 8.4931L23.659 7.83322L23.0977 7.42547H23.7915L24.0058 6.76562Z"
              stroke="#777777"
              stroke-width="1.5"
            ></path>
            <path
              d="M19.0059 12.7207C19.0059 10.6496 17.3269 8.9707 15.2559 8.9707C13.1848 8.9707 11.5059 10.6496 11.5059 12.7207V20.2207C11.5059 22.2918 13.1848 23.9707 15.2559 23.9707C17.3269 23.9707 19.0059 22.2918 19.0059 20.2207V12.7207Z"
              stroke="#777777"
              stroke-width="1.5"
              stroke-linecap="round"
              stroke-linejoin="round"
            ></path>
            <path
              d="M11.5059 16.4707C10.2559 16.4707 8.38086 17.7942 8.38086 20.2207C8.38086 22.6472 8.38086 25.1002 8.38086 26.3358"
              stroke="#777777"
              stroke-width="1.5"
              stroke-linecap="round"
              stroke-linejoin="round"
            ></path>
            <path
              d="M19.0059 16.4707C20.2559 16.4707 22.1309 17.7942 22.1309 20.2207C22.1309 22.6472 22.1309 24.9225 22.1309 26.1582"
              stroke="#777777"
              stroke-width="1.5"
              stroke-linecap="round"
              stroke-linejoin="round"
            ></path>
          </svg>
