<svg width="31" height="31" viewBox="0 0 31 31" fill="none" xmlns="http://www.w3.org/2000/svg"><path d="M15.2559 10.8457V15.8457L18.3809 18.9707" stroke="#777777" stroke-width="1.5" stroke-linecap="round" stroke-linejoin="round"></path><path stroke="#777777" d="M7.26104 7.85088L6.73071 7.32055L7.26104 7.85088ZM5.67806 9.43385L4.92807 9.43762C4.93014 9.84889 5.26302 10.1818 5.67429 10.1838L5.67806 9.43385ZM8.85623 10.1998C9.27044 10.2019 9.60791 9.86782 9.60999 9.45361C9.61207 9.0394 9.27798 8.70194 8.86377 8.69985L8.85623 10.1998ZM6.41206 6.24815C6.40998 5.83394 6.07251 5.49984 5.6583 5.50192C5.24409 5.50401 4.91 5.84148 4.91208 6.25568L6.41206 6.24815ZM4.85335 14.3014C4.9096 13.891 4.62253 13.5127 4.21215 13.4565C3.80178 13.4002 3.4235 13.6873 3.36725 14.0977L4.85335 14.3014ZM23.1707 7.93083L23.7011 7.4005C18.9978 2.69722 11.3999 2.65138 6.73071 7.32055L7.26104 7.85088L7.79137 8.38121C11.8647 4.30785 18.5128 4.33359 22.6404 8.46116L23.1707 7.93083ZM7.34098 23.7606L6.81065 24.2909C11.5139 28.9942 19.1118 29.04 23.781 24.3709L23.2507 23.8405L22.7204 23.3102C18.647 27.3836 11.9989 27.3578 7.87131 23.2302L7.34098 23.7606ZM23.2507 23.8405L23.781 24.3709C28.4502 19.7017 28.4043 12.1038 23.7011 7.4005L23.1707 7.93083L22.6404 8.46116C26.768 12.5887 26.7937 19.2368 22.7204 23.3102L23.2507 23.8405ZM7.26104 7.85088L6.73071 7.32055L5.14773 8.90352L5.67806 9.43385L6.20839 9.96418L7.79137 8.38121L7.26104 7.85088ZM5.67806 9.43385L5.67429 10.1838L8.85623 10.1998L8.86 9.44984L8.86377 8.69985L5.68183 8.68386L5.67806 9.43385ZM5.67806 9.43385L6.42805 9.43008L6.41206 6.24815L5.66207 6.25191L4.91208 6.25568L4.92807 9.43762L5.67806 9.43385ZM4.1103 14.1995L3.36725 14.0977C2.87314 17.7025 4.02375 21.504 6.81065 24.2909L7.34098 23.7606L7.87131 23.2302C5.42769 20.7866 4.42071 17.4578 4.85335 14.3014L4.1103 14.1995Z" fill="#777777"></path></svg>