<svg width="16" height="16" viewBox="0 0 16 16" fill="none" xmlns="http://www.w3.org/2000/svg">
<path d="M7.65625 16C5.90625 16 5.28125 15.6562 5.28125 14.9062V13.6562C4.78125 13.4688 4.34375 13.1875 3.9375 12.9062L2.875 13.5C2.71875 13.5938 2.5625 13.625 2.40625 13.625C1.25 13.625 0 10.75 0 10.25C0 9.90625 0.1875 9.5625 0.5 9.40625L1.5625 8.78125C1.5625 8.53125 1.53125 8.25 1.53125 8C1.53125 7.71875 1.5625 7.46875 1.59375 7.21875L0.53125 6.625C0.21875 6.46875 0.03125 6.125 0.03125 5.78125C0.03125 5.40625 1.21875 2.375 2.40625 2.375C2.59375 2.375 2.75 2.4375 2.90625 2.53125L3.96875 3.125C4.375 2.84375 4.8125 2.5625 5.28125 2.375V1.125C5.28125 0.15625 6.40625 0 7.6875 0C8.90625 0 10.0312 0.15625 10.0312 1.125V2.375C10.5 2.5625 10.9375 2.8125 11.3438 3.125L12.4062 2.53125C12.5625 2.4375 12.7188 2.40625 12.9062 2.40625C14.0312 2.40625 15.2812 5.28125 15.2812 5.78125C15.2812 6.125 15.0938 6.46875 14.7812 6.625L13.7188 7.25C13.75 7.5 13.7812 7.75 13.7812 8C13.7812 8.25 13.75 8.53125 13.7188 8.78125L14.7812 9.40625C15.0938 9.5625 15.2812 9.90625 15.2812 10.25C15.2812 10.625 14.0938 13.625 12.9062 13.625C12.7188 13.625 12.5625 13.5938 12.4062 13.5L11.3438 12.9062C10.9375 13.1875 10.5 13.4688 10.0312 13.6562V14.9062C10.0625 15.6562 9.4375 16 7.65625 16ZM4.0625 11.6875C5.1875 12.6562 5.71875 12.75 6.28125 12.9688V14.9062C6.75 14.9688 7.1875 15 7.65625 15C8.125 15 8.59375 14.9688 9.0625 14.875L9.03125 12.9688C9.5625 12.7812 10.1562 12.625 11.25 11.6875L12.9375 12.6562C13.5312 11.9688 14 11.1562 14.2812 10.25L12.6562 9.3125C12.7188 8.84375 12.7812 8.5 12.7812 8.0625C12.7812 7.75 12.75 7.34375 12.6562 6.71875L14.3125 5.78125C14 4.90625 13.5312 4.09375 12.9062 3.375L11.25 4.34375C10.1562 3.375 9.625 3.28125 9.03125 3.0625V1.125C8.59375 1.0625 8.15625 1.03125 7.6875 1.03125C7.21875 1.03125 6.75 1.0625 6.25 1.15625L6.28125 3.0625C5.78125 3.25 5.1875 3.375 4.0625 4.34375L2.40625 3.375C1.8125 4.09375 1.34375 4.90625 1.03125 5.8125L2.6875 6.71875C2.625 7.1875 2.5625 7.53125 2.5625 7.9375C2.5625 8.28125 2.59375 8.6875 2.6875 9.28125L1.03125 10.25C1.34375 11.0938 1.8125 11.9062 2.4375 12.625L4.0625 11.6875ZM7.6875 11C6.03125 11 4.6875 9.65625 4.6875 8C4.6875 6.34375 6.03125 5 7.6875 5C9.3125 5 10.6875 6.34375 10.6875 8C10.6875 9.65625 9.3125 11 7.6875 11ZM7.6875 6C6.5625 6 5.6875 6.875 5.6875 8C5.6875 9.09375 6.5625 10 7.6875 10C8.78125 10 9.6875 9.09375 9.6875 8C9.6875 6.875 8.78125 6 7.6875 6Z" fill="white"/>
</svg>
