<svg width="18" height="16" viewBox="0 0 18 16" fill="none" xmlns="http://www.w3.org/2000/svg">
<path d="M17.8242 7.48828C17.9297 7.59375 18 7.73438 18 7.875C18 8.05078 17.9297 8.19141 17.8242 8.29688L12.7617 13.3594C12.5508 13.5703 12.1641 13.5703 11.9531 13.3594C11.7422 13.1484 11.7422 12.7617 11.9531 12.5508L16.0664 8.4375H6.1875C5.87109 8.4375 5.625 8.19141 5.625 7.875C5.625 7.59375 5.87109 7.3125 6.1875 7.3125H16.0664L11.9531 3.23438C11.7422 3.02344 11.7422 2.63672 11.9531 2.42578C12.1641 2.21484 12.5508 2.21484 12.7617 2.42578L17.8242 7.48828ZM6.1875 14.625C6.46875 14.625 6.75 14.9062 6.75 15.1875C6.75 15.5039 6.46875 15.75 6.1875 15.75H2.8125C1.23047 15.75 0 14.5195 0 12.9375V2.8125C0 1.26562 1.23047 0 2.8125 0H6.1875C6.46875 0 6.75 0.28125 6.75 0.5625C6.75 0.878906 6.46875 1.125 6.1875 1.125H2.8125C1.86328 1.125 1.125 1.89844 1.125 2.8125V12.9375C1.125 13.8867 1.86328 14.625 2.8125 14.625H6.1875Z" fill="white"/>
</svg>
