<svg width="16" height="18" viewBox="0 0 16 18" fill="none" xmlns="http://www.w3.org/2000/svg">
<path d="M13.5 2.25C14.7305 2.25 15.75 3.26953 15.75 4.5V15.75C15.75 17.0156 14.7305 18 13.5 18H2.25C0.984375 18 0 17.0156 0 15.75V4.5C0 3.26953 0.984375 2.25 2.25 2.25H3.375V0.5625C3.375 0.28125 3.62109 0 3.9375 0C4.21875 0 4.5 0.28125 4.5 0.5625V2.25H11.25V0.5625C11.25 0.28125 11.4961 0 11.8125 0C12.0938 0 12.375 0.28125 12.375 0.5625V2.25H13.5ZM14.625 15.75V6.75H1.125V15.75C1.125 16.3828 1.61719 16.875 2.25 16.875H13.5C14.0977 16.875 14.625 16.3828 14.625 15.75ZM14.625 5.625V4.5C14.625 3.90234 14.0977 3.375 13.5 3.375H2.25C1.61719 3.375 1.125 3.90234 1.125 4.5V5.625H14.625ZM4.60547 15.75C4.18359 15.8203 3.86719 15.5039 3.9375 15.082L4.35938 12.9727C4.39453 12.8672 4.42969 12.7617 4.5 12.6914L8.85938 8.33203C9.17578 8.01562 9.59766 7.83984 10.0898 7.91016C10.4414 7.94531 10.793 8.12109 11.0742 8.36719L11.3555 8.68359C11.6719 9 11.8477 9.42188 11.7773 9.87891C11.7422 10.2656 11.5664 10.6172 11.3203 10.8984L6.99609 15.1875C6.92578 15.2578 6.82031 15.293 6.71484 15.3281L4.60547 15.75ZM9.63281 9.14062L9.24609 9.52734L10.1602 10.4414L10.5469 10.0547C10.7227 9.87891 10.7227 9.63281 10.5469 9.45703L10.2305 9.14062C10.0547 8.96484 9.80859 8.96484 9.63281 9.14062ZM5.41406 13.3594L5.20312 14.4844L6.32812 14.2734L9.38672 11.25L8.4375 10.3008L5.41406 13.3594Z" fill="#D3427A"/>
</svg>
