<svg width="19" height="18" viewBox="0 0 19 18" fill="none" xmlns="http://www.w3.org/2000/svg">
<path d="M13.0469 9.42188C13.7148 9.49219 13.9609 10.3008 13.5039 10.793L10.832 13.3945L11.4648 17.0859C11.5 17.2969 11.4297 17.543 11.2539 17.7188C11.1133 17.8945 10.9023 18 10.6562 18C10.5156 18 10.375 17.9648 10.2695 17.9297L7 16.1719L3.69531 17.9297C3.55469 18 3.44922 18 3.30859 18C3.0625 18 2.85156 17.8945 2.71094 17.7188C2.57031 17.543 2.5 17.2969 2.53516 17.0859L3.13281 13.3945L0.496094 10.793C0.00390625 10.3359 0.25 9.49219 0.917969 9.42188L4.60938 8.85938L6.26172 5.51953C6.40234 5.23828 6.68359 5.0625 6.96484 5.0625C7.28125 5.0625 7.5625 5.23828 7.70312 5.51953L9.35547 8.85938L13.0469 9.42188ZM9.60156 13.0078L12.2383 10.4414L8.61719 9.91406L7 6.60938L5.34766 9.91406L1.72656 10.4414L4.32812 13.0078L3.73047 16.6289L6.96484 14.9062L10.2344 16.6289L9.60156 13.0078ZM9.25 3.9375C8.93359 3.9375 8.6875 3.69141 8.6875 3.375C8.6875 3.09375 8.93359 2.8125 9.25 2.84766L11.5 2.8125V0.5625C11.5 0.28125 11.7461 0 12.0625 0C12.3438 0 12.625 0.28125 12.625 0.5625V2.8125L14.875 2.84766C15.1562 2.84766 15.4375 3.09375 15.4375 3.375C15.4375 3.69141 15.1562 3.9375 14.875 3.9375H12.625V6.1875C12.625 6.50391 12.3438 6.75 12.0625 6.75C11.7461 6.75 11.5 6.50391 11.5 6.1875V3.9375H9.25ZM17.6875 7.3125C17.9688 7.3125 18.25 7.59375 18.25 7.91016C18.25 8.19141 17.9688 8.4375 17.6875 8.4375H16.5625V9.5625C16.5625 9.87891 16.2812 10.1602 16 10.1602C15.6836 10.1602 15.4375 9.87891 15.4375 9.5625V8.4375H14.3125C13.9961 8.4375 13.75 8.19141 13.75 7.91016C13.75 7.59375 13.9961 7.3125 14.3125 7.3125H15.4375V6.1875C15.4375 5.90625 15.7188 5.66016 16 5.66016C16.2812 5.66016 16.5625 5.90625 16.5625 6.1875V7.3125H17.6875Z" fill="white"/>
</svg>
