<svg width="16" height="16" viewBox="0 0 16 16" fill="none" xmlns="http://www.w3.org/2000/svg">
<path d="M3.375 4.21875C2.88281 4.21875 2.53125 3.86719 2.53125 3.375C2.53125 2.91797 2.88281 2.53125 3.375 2.53125C3.83203 2.53125 4.21875 2.91797 4.21875 3.375C4.21875 3.86719 3.83203 4.21875 3.375 4.21875ZM9.91406 3.79688L13.2891 8.50781C13.5352 8.85938 13.5352 9.28125 13.3594 9.59766C13.1484 9.94922 12.7969 10.125 12.4102 10.125H3.30469C2.91797 10.125 2.53125 9.91406 2.35547 9.59766C2.17969 9.24609 2.21484 8.78906 2.46094 8.47266L4.67578 5.66016C5.0625 5.13281 5.97656 5.13281 6.36328 5.66016L6.60938 5.97656L8.19141 3.79688C8.57812 3.23438 9.52734 3.26953 9.91406 3.79688ZM3.44531 9H12.2695L9 4.46484L7.10156 7.24219C6.82031 7.62891 6.32812 7.45312 6.1875 7.24219L5.48438 6.36328L3.44531 9ZM13.5 0C14.7305 0 15.75 1.01953 15.75 2.25V13.5C15.75 14.7656 14.7305 15.75 13.5 15.75H2.25C0.984375 15.75 0 14.7656 0 13.5V2.25C0 1.01953 0.984375 0 2.25 0H13.5ZM14.625 13.5V12.375H1.125V13.5C1.125 14.1328 1.61719 14.625 2.25 14.625H13.5C14.0977 14.625 14.625 14.1328 14.625 13.5ZM14.625 11.25V2.25C14.625 1.65234 14.0977 1.125 13.5 1.125H2.25C1.61719 1.125 1.125 1.65234 1.125 2.25V11.25H14.625Z" fill="white"/>
</svg>
