<svg width="16" height="15" viewBox="0 0 16 15" fill="none" xmlns="http://www.w3.org/2000/svg">
<path d="M4.725 0.225L2.25 2.7L1.275 1.725C0.975 1.425 0.525 1.425 0.225 1.725C-0.075 2.025 -0.075 2.475 0.225 2.775L1.725 4.275C1.875 4.425 2.025 4.5 2.25 4.5C2.475 4.5 2.625 4.425 2.775 4.275L5.775 1.275C6.075 0.975 6.075 0.525 5.775 0.225C5.475 -0.075 5.025 -0.075 4.725 0.225ZM4.725 5.475L2.25 7.95L1.275 6.975C0.975 6.675 0.525 6.675 0.225 6.975C-0.075 7.275 -0.075 7.725 0.225 8.025L1.725 9.525C1.875 9.675 2.025 9.75 2.25 9.75C2.475 9.75 2.625 9.675 2.775 9.525L5.775 6.525C6.075 6.225 6.075 5.775 5.775 5.475C5.475 5.175 5.025 5.175 4.725 5.475ZM4.725 10.725L2.25 13.2L1.275 12.225C0.975 11.925 0.525 11.925 0.225 12.225C-0.075 12.525 -0.075 12.975 0.225 13.275L1.725 14.775C1.875 14.925 2.025 15 2.25 15C2.475 15 2.625 14.925 2.775 14.775L5.775 11.775C6.075 11.475 6.075 11.025 5.775 10.725C5.475 10.425 5.025 10.425 4.725 10.725ZM9 3.75H15C15.45 3.75 15.75 3.45 15.75 3C15.75 2.55 15.45 2.25 15 2.25H9C8.55 2.25 8.25 2.55 8.25 3C8.25 3.45 8.55 3.75 9 3.75ZM15 7.5H9C8.55 7.5 8.25 7.8 8.25 8.25C8.25 8.7 8.55 9 9 9H15C15.45 9 15.75 8.7 15.75 8.25C15.75 7.8 15.45 7.5 15 7.5ZM15 12.75H9C8.55 12.75 8.25 13.05 8.25 13.5C8.25 13.95 8.55 14.25 9 14.25H15C15.45 14.25 15.75 13.95 15.75 13.5C15.75 13.05 15.45 12.75 15 12.75Z" fill="white"/>
</svg>
