<svg width="20" height="17" viewBox="0 0 20 17" fill="none" xmlns="http://www.w3.org/2000/svg">
<path d="M16.8359 1.89844C19.0508 3.79688 19.1562 7.17188 17.1875 9.21094L10.3672 16.2422C10.1562 16.4531 9.875 16.5586 9.55859 16.5586C9.27734 16.5586 8.99609 16.4531 8.78516 16.2422L1.96484 9.21094C-0.00390625 7.17188 0.101562 3.79688 2.31641 1.89844C4.56641 0 7.44922 0.878906 8.89062 2.35547L9.59375 3.09375L10.2617 2.35547C12.0547 0.527344 14.9023 0.28125 16.8359 1.89844ZM16.3789 8.4375C17.7148 7.03125 17.9961 4.39453 16.0977 2.77734C14.1641 1.125 11.8789 2.32031 11.0703 3.16406L9.59375 4.71094L8.08203 3.16406C7.23828 2.32031 4.98828 1.125 3.05469 2.77734C1.15625 4.39453 1.4375 7.03125 2.77344 8.4375L9.59375 15.4688L16.3789 8.4375Z" fill="white"/>
</svg>
