<svg width="18" height="14" viewBox="0 0 18 14" fill="none" xmlns="http://www.w3.org/2000/svg">
<path d="M7.5 11C7.21875 11 7 10.7812 7 10.5C7 10.25 7.21875 10 7.5 10H11.5C11.75 10 12 10.25 12 10.5C12 10.7812 11.75 11 11.5 11H7.5ZM3.5 11C3.21875 11 3 10.7812 3 10.5C3 10.25 3.21875 10 3.5 10H5.5C5.75 10 6 10.25 6 10.5C6 10.7812 5.75 11 5.5 11H3.5ZM16 0C17.0938 0 18 0.90625 18 2V12C18 13.125 17.0938 14 16 14H2C0.875 14 0 13.125 0 12V2C0 0.90625 0.875 0 2 0H16ZM17 12V7H1V12C1 12.5625 1.4375 13 2 13H16C16.5312 13 17 12.5625 17 12ZM17 6V4H1V6H17ZM17 3V2C17 1.46875 16.5312 1 16 1H2C1.4375 1 1 1.46875 1 2V3H17Z" fill="white"/>
</svg>
