<svg width="840" height="258" viewBox="0 0 840 258" fill="none" xmlns="http://www.w3.org/2000/svg">
<g clip-path="url(#clip0_2_44265)">
<path d="M786.961 226.229C795.606 220.512 803.413 213.983 810.527 206.419C858.43 155.474 846.208 67.4316 786.444 32.24C769.028 21.9884 750.646 15.9098 730.442 16.3691C716.71 16.6818 710.229 24.6954 711.915 38.8464C713.542 52.5379 719.108 64.4998 726.066 76.1C737.898 95.8116 749.233 115.836 760.822 135.714C760.822 135.723 760.831 135.723 760.831 135.733C762.011 137.541 764.769 136.984 764.964 134.824C765.11 133.153 764.788 131.502 764.759 129.957C764.457 108.79 767.712 88.2768 774.983 68.4577C776.864 63.3173 779.807 59.2029 785.762 61.4214C792.165 63.8059 791.454 69.0343 789.583 74.4973C777.098 110.95 778.823 147.46 789.612 183.883C791.162 189.102 792.175 194.106 786.483 196.725C780.987 199.246 777.527 195.708 774.759 190.939C751.904 151.575 728.815 112.337 706.116 72.8848C699.498 61.3823 695.96 48.7559 696.106 35.1229C696.311 16.7404 703.27 7.33908 719.926 1.64158C720.219 1.53408 720.774 1.3484 721.076 1.26044C723.094 0.693627 725.355 0.283172 727.596 -0.0100098H9.58056C4.28835 -0.000237037 0 4.37795 0 9.77249V248.227C0 253.622 4.28835 258 9.58056 258H719.458C679.138 254.824 646.937 234.77 624.559 198.963C591.013 145.301 599.609 78.7484 643.983 34.9666C650.289 28.7414 657.287 23.3957 664.753 18.6559C669.519 15.6264 673.817 14.7761 677.238 20.3661C680.785 26.1614 677.462 29.7089 672.979 32.5918C655.075 44.0943 641.186 59.3691 631.752 78.8266C611.119 121.367 618.789 172.752 650.396 206.449C671.76 229.229 697.432 241.963 728.522 241.963C743.951 241.963 750.237 234.819 748.639 219.016C747.498 207.68 743.152 197.477 737.421 187.763C724.858 166.459 712.539 145.008 700.083 123.625C699.245 122.178 698.601 120.429 695.453 119.53C695.561 135.372 695.356 150.519 692.442 165.491C690.765 174.091 688.066 182.339 685.356 190.588C683.553 196.07 679.723 198.885 674.051 196.598C668.3 194.282 668.963 189.64 670.62 184.704C682.959 148.027 682.052 111.311 670.659 74.6341C669.07 69.5132 668.144 64.4802 673.875 61.7341C679.879 58.8609 683.261 62.8384 686.116 67.7248C708.026 105.369 729.994 142.965 751.904 180.619C757.742 190.656 761.913 201.435 764.028 212.84C764.749 216.749 766.357 220.463 768.862 223.502C772.517 227.949 778.54 231.809 786.961 226.229Z" fill="#D4437B"/>
<g clip-path="url(#clip1_2_44265)">
<path d="M364.438 -14.8144C366.387 -5.89597 363.614 3.35705 360.072 11.7718C356.53 20.183 352.145 28.4004 350.655 37.4034C349.164 46.4063 351.229 56.7125 358.486 62.253C366.088 68.0577 376.922 67.0116 385.962 63.8838C395.002 60.7561 403.535 55.8214 413.012 54.5322C422.492 53.243 433.735 57.0506 436.784 66.1134C438.109 70.0478 437.7 74.3732 438.814 78.371C441.753 88.899 454.303 93.8795 465.222 93.2667C476.14 92.6538 486.446 88.103 497.241 86.3489C508.036 84.5948 520.766 86.5497 526.825 95.6513C536.549 110.258 522.578 131.025 529.574 147.119C534.11 157.552 547.009 162.733 558.164 160.486C569.318 158.239 578.51 149.856 584.131 139.969C589.756 130.081 592.269 118.757 594.158 107.542C600.583 69.3997 600.611 30.1897 594.236 -7.96003C592.992 -15.4096 591.36 -23.134 586.641 -29.0303C578.316 -39.4386 563.33 -40.9814 550.012 -41.5907C489.942 -44.3416 429.759 -44.7361 369.655 -42.7777C364.872 -42.6227 359.97 -42.4255 355.55 -40.5974C353.449 -39.7274 348.269 -36.8779 348.029 -34.1376C347.676 -30.0694 350.609 -31.0979 353.534 -29.2839C358.972 -25.906 363.036 -21.2355 364.438 -14.8144Z" fill="black" fill-opacity="0.05"/>
</g>
<g clip-path="url(#clip2_2_44265)">
<path d="M-13.1731 122.098C4.32075 108.605 37.5738 101.877 53.9757 120.163C69.344 137.298 73.4333 165.251 81.6836 182.77C88.0242 196.241 98.9123 213.962 143.242 218.778C165.553 221.201 166.524 242.314 164.066 256.564C155.55 310.767 32.3882 329.456 -8.77827 306.185C-53.0049 284.781 -65.1288 234.313 -56.3122 189.387C-48.0394 163.284 -35.529 138.037 -13.1731 122.098Z" fill="black" fill-opacity="0.1"/>
</g>
</g>
<defs>
<clipPath id="clip0_2_44265">
<rect width="840" height="258" fill="white"/>
</clipPath>
<clipPath id="clip1_2_44265">
<rect width="251" height="205" fill="white" transform="translate(348 -44)"/>
</clipPath>
<clipPath id="clip2_2_44265">
<rect width="224" height="207" fill="white" transform="translate(-59 109)"/>
</clipPath>
</defs>
</svg>
