<svg width="59" height="59" viewBox="0 0 59 59" fill="none" xmlns="http://www.w3.org/2000/svg">
<path d="M31.018 0C31.0289 0 31.0382 0 31.0491 0.00156582C31.8397 0.0438431 32.5326 0.125266 33.3186 0.295941C35.4871 0.765688 37.6604 1.21351 39.7746 2.00425C50.5552 6.03312 58.2974 17.1661 58.4419 28.7751C58.5786 39.7437 53.9712 48.0974 45.1711 54.2887C44.9396 54.4515 44.702 54.6018 44.4612 54.749C43.4266 55.3816 42.3579 55.5445 41.6557 54.3826C40.9909 53.2803 41.4383 52.2406 42.4775 51.6095C44.5233 50.3678 46.2989 48.8208 47.9517 47.1C59.0803 35.5004 56.2407 15.4562 42.3563 7.44549C38.3112 5.11241 34.0394 3.72666 29.3465 3.83157C26.1574 3.9036 24.6506 5.72778 25.042 8.94868C25.4211 12.0662 26.7135 14.7892 28.3306 17.4307C31.0801 21.9184 33.7132 26.4781 36.4037 31.0033C36.4052 31.0064 36.4068 31.008 36.4083 31.0111C36.6646 31.4339 37.3264 31.2742 37.3668 30.7794C37.3963 30.4052 37.3233 30.0372 37.3171 29.6911C37.2472 24.8731 38.0037 20.2023 39.6922 15.6896C40.1303 14.5199 40.8122 13.582 42.1963 14.0877C43.6845 14.6311 43.5183 15.8211 43.0833 17.0643C40.1831 25.3632 40.5839 33.6746 43.0911 41.9688C43.4499 43.1572 43.6876 44.2956 42.3641 44.8922C41.0872 45.4668 40.2841 44.6604 39.641 43.5753C34.3314 34.6125 28.969 25.6811 23.6937 16.6979C22.1558 14.0783 21.334 11.205 21.3682 8.10157C21.4148 3.91613 23.0319 1.77721 26.9015 0.479142C26.9698 0.455655 27.0987 0.411812 27.1686 0.393022C27.9655 0.172241 28.9287 0.0548038 29.7551 0.00626329C29.769 0 29.7799 0 29.7923 0H31.018Z" fill="#D3427A"/>
<path d="M21.2196 27.3173C21.2444 30.9249 21.1963 34.3729 20.519 37.7801C20.1291 39.7374 19.5015 41.6148 18.8739 43.4938C18.456 44.7418 17.5659 45.3838 16.2471 44.8623C14.9112 44.3346 15.065 43.2793 15.4502 42.155C18.3162 33.8045 18.1065 25.4461 15.4595 17.0956C15.0898 15.9306 14.8754 14.7844 16.2067 14.1597C17.6017 13.5051 18.3877 14.4102 19.0495 15.5235C24.1384 24.0932 29.2429 32.6536 34.3319 41.2249C35.8232 43.7365 36.8438 46.4501 37.2803 49.3343C38.1113 54.821 34.7824 58.9767 29.2786 58.9469C18.7434 58.889 10.4016 54.262 4.75032 45.401C-3.04313 33.1844 -1.04545 18.0335 9.26298 8.06391C10.7278 6.64683 12.3543 5.42862 14.0879 4.34977C15.1954 3.66081 16.1943 3.46665 16.9881 4.73966C17.8114 6.05965 17.0393 6.86762 15.9986 7.52213C11.8401 10.1402 8.61365 13.6194 6.42179 18.0492C1.62952 27.7338 3.41128 39.4336 10.7527 47.1046C15.7158 52.2906 21.6794 55.1889 28.9012 55.1889C32.4849 55.1889 33.9451 53.562 33.5754 49.9654C33.3113 47.3849 32.3 45.0628 30.9688 42.8502C28.0499 37.9993 25.1885 33.1155 22.2961 28.2489C22.1003 27.9201 21.9512 27.5208 21.2196 27.3173Z" fill="#D3427A"/>
</svg>
