<svg width="205" height="53" viewBox="0 0 205 53" fill="none" xmlns="http://www.w3.org/2000/svg">
<g clip-path="url(#clip0_12847_3711)">
<path d="M27.8881 0C27.8979 0 27.9063 0 27.9161 0.00140785C28.627 0.0394199 29.2499 0.112628 29.9566 0.266084C31.9064 0.68844 33.8604 1.09109 35.7613 1.80205C45.4544 5.42445 52.4155 15.4343 52.5454 25.8721C52.6683 35.7341 48.5257 43.245 40.6134 48.8116C40.4053 48.9581 40.1916 49.0932 39.9752 49.2255C39.045 49.7943 38.084 49.9407 37.4527 48.8961C36.8549 47.905 37.2572 46.9702 38.1916 46.4028C40.031 45.2864 41.6274 43.8954 43.1135 42.3482C53.1195 31.9188 50.5663 13.8969 38.0826 6.69434C34.4456 4.59664 30.6047 3.35069 26.3853 3.44501C23.5179 3.50977 22.1631 5.14992 22.515 8.04587C22.8558 10.8489 24.0179 13.2972 25.4719 15.6722C27.944 19.7071 30.3114 23.8068 32.7305 27.8755C32.7319 27.8783 32.7333 27.8797 32.7347 27.8825C32.9651 28.2626 33.5601 28.119 33.5964 27.6741C33.623 27.3377 33.5573 27.0068 33.5517 26.6957C33.4889 22.3637 34.1691 18.1641 35.6873 14.1067C36.0812 13.055 36.6943 12.2117 37.9388 12.6664C39.2768 13.155 39.1274 14.2249 38.7363 15.3428C36.1286 22.8044 36.489 30.2773 38.7433 37.7347C39.0659 38.8032 39.2796 39.8267 38.0896 40.3631C36.9415 40.8798 36.2194 40.1548 35.6412 39.1791C30.8673 31.1206 26.0459 23.0902 21.3027 15.0133C19.92 12.658 19.1811 10.0746 19.2119 7.28423C19.2538 3.52104 20.7077 1.59791 24.1869 0.430803C24.2483 0.409685 24.3643 0.370265 24.4271 0.353371C25.1436 0.154864 26.0096 0.0492748 26.7526 0.00563141C26.7652 0 26.775 0 26.7861 0H27.8881Z" fill="#D3427A"/>
<path d="M19.0789 24.5616C19.1012 27.8053 19.0579 30.9054 18.449 33.9689C18.0984 35.7287 17.5341 37.4167 16.9699 39.1061C16.5942 40.2282 15.7938 40.8054 14.6081 40.3366C13.4069 39.8622 13.5452 38.9133 13.8915 37.9024C16.4685 30.3943 16.2799 22.8792 13.8999 15.3712C13.5675 14.3237 13.3748 13.2932 14.5717 12.7314C15.826 12.1429 16.5327 12.9567 17.1277 13.9577C21.7033 21.6628 26.2928 29.3596 30.8684 37.0662C32.2092 39.3243 33.1269 41.7642 33.5193 44.3574C34.2666 49.2905 31.2734 53.027 26.3249 53.0002C16.8525 52.9481 9.35228 48.7879 4.2711 40.8209C-2.73613 29.8368 -0.939979 16.2145 8.3285 7.25066C9.64559 5.97656 11.1079 4.88125 12.6666 3.91124C13.6625 3.29178 14.5606 3.11721 15.2743 4.26179C16.0145 5.44861 15.3204 6.17506 14.3846 6.76355C10.6456 9.11747 7.74468 12.2457 5.77394 16.2285C1.46513 24.9361 3.06714 35.4556 9.66793 42.3526C14.1304 47.0154 19.4923 49.6214 25.9855 49.6214C29.2077 49.6214 30.5206 48.1586 30.1882 44.9248C29.9508 42.6046 29.0415 40.5168 27.8445 38.5275C25.2202 34.166 22.6474 29.7749 20.0468 25.3993C19.8708 25.1036 19.7367 24.7446 19.0789 24.5616Z" fill="#D3427A"/>
<path d="M185.965 27.1547C185.987 31.6303 184.852 35.0697 181.811 37.5278C176.847 41.543 169.823 39.5494 167.27 33.4323C165.505 29.2046 165.645 24.9571 167.889 20.9137C169.812 17.4476 172.832 15.6835 176.772 15.9229C180.765 16.165 183.346 18.5344 184.923 22.1005C185.715 23.8913 186.124 25.7807 185.965 27.1547ZM181.619 28.8807C181.614 25.0683 181.255 23.7632 180.024 21.9147C178.095 19.0202 174.015 18.9948 172.074 21.864C169.941 25.0176 169.928 30.3168 172.046 33.4985C173.706 35.9932 176.924 36.4817 179.186 34.5178C181.25 32.7242 181.6 30.2633 181.619 28.8807Z" fill="#D3427A"/>
<path d="M155.924 39.5774C150.792 39.59 147.416 36.3745 146.887 31.1936C146.543 27.8331 146.717 24.6063 148.069 21.4696C150.856 14.9991 158.135 14.6865 162.534 17.7472C163.332 18.3019 163.323 18.8538 162.551 19.4226C161.463 20.225 160.26 20.515 158.964 20.1223C154.229 18.6919 152.127 20.9909 151.19 24.8921C151.098 25.275 150.841 25.7283 151.261 26.0099C151.609 26.2422 151.925 25.8564 152.207 25.6805C154.746 24.0854 157.382 24.1389 160.058 25.2229C162.945 26.3928 164.231 28.7538 164.284 31.7159C164.34 34.7752 162.809 37.0672 160.158 38.5341C158.855 39.2564 157.415 39.5633 155.924 39.5774ZM155.64 28.1808C154.016 28.0823 152.541 28.5117 151.693 30.0913C150.995 31.3935 151.066 32.7732 151.835 34.0347C153.106 36.1155 157.128 36.5195 158.871 34.7822C159.982 33.6728 160.44 31.6343 159.763 30.2616C158.938 28.5891 157.433 28.1118 155.64 28.1808Z" fill="#D3427A"/>
<path d="M107.508 32.9369C107.509 34.6193 107.524 36.3031 107.501 37.9855C107.49 38.7218 107.668 39.7129 106.604 39.7945C105.457 39.8832 103.975 40.4253 103.325 39.0216C102.778 37.8447 102.379 38.184 101.686 38.726C98.4431 41.2615 93.2097 40.2169 91.4973 38.1361C88.5419 34.5418 90.0978 29.4018 94.5868 28.215C96.9375 27.5941 99.2881 27.7377 101.651 28.1713C103.151 28.4473 103.394 28.1122 102.858 26.6931C102.056 24.5743 99.6359 23.5522 96.7154 24.1068C96.0701 24.2293 95.4332 24.4152 94.7838 24.494C93.8745 24.6052 93.0924 24.3152 92.489 23.5845C91.3646 22.2231 91.5546 21.4911 93.2488 20.9687C95.626 20.2367 98.0101 19.6806 100.554 20.0902C105.115 20.8237 107.408 23.3705 107.503 28.0404C107.534 29.6735 107.506 31.3052 107.508 32.9369ZM98.161 36.7282C100.939 36.7353 103.038 35.0825 103.14 32.8665C103.182 31.957 102.84 31.3826 101.981 31.1714C100.252 30.7491 98.5129 30.4492 96.7615 31.0771C95.9332 31.3742 95.2111 31.7712 94.8173 32.6455C93.8005 34.9051 95.2782 36.7212 98.161 36.7282Z" fill="#D3427A"/>
<path d="M68.8048 30.0873C68.8034 27.5856 68.7755 25.0838 68.8202 22.5821C68.8342 21.7796 68.4375 20.7012 69.5954 20.3577C70.7588 20.0113 71.9795 20.3422 72.5955 21.3164C73.4084 22.6004 73.8651 22.316 74.8511 21.5079C77.1655 19.6115 79.8192 19.313 82.5539 20.5477C85.1909 21.7374 86.1504 24.0674 86.223 26.762C86.3264 30.5885 86.2649 34.4193 86.2454 38.2486C86.237 39.7522 85.6616 40.1422 84.2314 39.7058C82.7104 39.2412 81.8989 38.2205 81.8654 36.5254C81.8179 34.1771 81.8332 31.8288 81.8528 29.4805C81.8612 28.443 81.6936 27.442 81.3374 26.4818C80.7717 24.9599 79.0566 23.89 77.5021 24.0279C75.5202 24.2039 74.1053 25.2922 73.7505 27.0464C73.1472 30.0282 73.562 33.0537 73.46 36.058C73.386 38.2346 72.5787 39.396 70.7895 39.7804C69.3076 40.0986 68.8258 39.7367 68.8146 38.2064C68.7895 35.4991 68.8048 32.7932 68.8048 30.0873Z" fill="#D3427A"/>
<path d="M136.755 16.2366C138.528 16.2366 140.302 16.2155 142.074 16.2465C142.799 16.2591 143.778 15.9621 144.099 16.8561C144.464 17.8669 144.457 18.9636 143.602 19.859C142.056 21.4752 140.522 23.1041 138.994 24.7372C138.568 25.1934 137.989 25.7298 139.128 26.0099C143.76 27.1503 144.795 30.2644 144.525 33.1463C144.219 36.4125 141.631 38.9171 137.888 39.4718C135.638 39.8055 133.424 39.4957 131.406 38.3835C129.786 37.491 129.162 35.7804 129.779 34.2219C130.176 33.2195 130.63 32.7944 131.618 33.7939C133.306 35.4988 135.423 36.0747 137.764 35.6058C139.313 35.2961 140.409 33.9305 140.415 32.479C140.419 31.1007 139.398 29.7633 137.919 29.3859C136.943 29.1368 135.93 29.0143 134.926 28.9002C134.215 28.8186 133.459 28.8805 133.166 28.0189C132.854 27.1052 132.817 26.2422 133.571 25.4665C134.917 24.0826 136.227 22.662 137.54 21.2472C137.804 20.9628 138.278 20.6995 138.103 20.2532C137.922 19.7872 137.395 19.9674 137.014 19.9604C135.596 19.935 134.177 19.9364 132.758 19.9449C131.416 19.9519 130.433 19.2846 129.697 18.2358C128.881 17.0757 129.265 16.2831 130.673 16.2535C132.698 16.2099 134.725 16.2422 136.751 16.2422C136.755 16.2408 136.755 16.238 136.755 16.2366Z" fill="#D3427A"/>
<path d="M124.864 25.6287C124.864 29.2511 124.86 32.8721 124.869 36.4945C124.871 37.618 124.662 38.6175 123.637 39.2835C122.827 39.81 121.93 40.0916 121.047 39.7283C120.141 39.3553 120.475 38.4007 120.472 37.6827C120.45 31.0517 120.465 24.4208 120.458 17.7884C120.455 15.7076 121.286 14.135 123.177 13.2255C124.402 12.637 124.846 12.9144 124.856 14.3039C124.881 18.0798 124.864 21.8542 124.864 25.6287Z" fill="#D3427A"/>
<path d="M116.297 29.258C116.299 31.6542 116.258 34.0503 116.314 36.4437C116.346 37.8487 115.683 38.7723 114.571 39.4311C112.761 40.5053 111.701 39.9028 111.697 37.8163C111.69 33.5857 111.677 29.3552 111.704 25.126C111.718 22.9888 112.676 21.4529 114.679 20.5927C115.779 20.1196 116.309 20.3449 116.302 21.612C116.285 24.1602 116.296 26.7098 116.297 29.258Z" fill="#D3427A"/>
<path d="M116.297 14.5714C116.267 16.6142 114.889 18.3627 113.016 18.8428C112.167 19.061 111.794 18.8301 111.701 17.9446C111.487 15.9159 112.922 13.6478 114.855 13.0396C115.975 12.6877 116.32 13.0537 116.297 14.5714Z" fill="#D3427A"/>
</g>
<defs>
<clipPath id="clip0_12847_3711">
<rect width="204.902" height="53" fill="white"/>
</clipPath>
</defs>
</svg>
