<svg width="14" height="13" viewBox="0 0 14 13" fill="none" xmlns="http://www.w3.org/2000/svg">
<path d="M12.25 0H1.75C0.765625 0 0 0.792969 0 1.75V10.5C0 11.4844 0.765625 12.25 1.75 12.25H12.25C13.207 12.25 14 11.4844 14 10.5V1.75C14 0.792969 13.207 0 12.25 0ZM5.25 0.875H8.75V3.80078H5.25V0.875ZM5.25 4.67578H8.75V7.60156H5.25V4.67578ZM4.375 11.375H1.75C1.25781 11.375 0.875 10.9922 0.875 10.5V8.47656H4.375V11.375ZM4.375 7.60156H0.875V4.67578H4.375V7.60156ZM4.375 3.80078H0.875V1.75C0.875 1.28516 1.25781 0.875 1.75 0.875H4.375V3.80078ZM5.25 11.375V8.47656H8.75V11.375H5.25ZM13.125 10.5C13.125 10.9922 12.7148 11.375 12.25 11.375H9.625V8.47656H13.125V10.5ZM13.125 7.60156H9.625V4.67578H13.125V7.60156ZM13.125 3.80078H9.625V0.875H12.25C12.7148 0.875 13.125 1.28516 13.125 1.75V3.80078Z" fill="#333333" fill-opacity="0.8"/>
</svg>
