<svg width="12" height="12" viewBox="0 0 12 12" fill="none" xmlns="http://www.w3.org/2000/svg">
<path d="M9.75 1.6875C10.4766 1.6875 10.5 2.8125 9.75 2.8125C9 2.8125 8.97656 1.6875 9.75 1.6875ZM10.125 8.25C11.1562 8.25 12 9.09375 12 10.125C12 11.1797 11.1562 12 10.125 12H2.25C2.25 12 0 9.49219 0 8.25C0 7.00781 1.00781 6 2.25 6C3.49219 6 4.5 7.00781 4.5 8.25C4.5 9.07031 3.53906 10.4297 2.85938 11.25H10.125C10.7344 11.25 11.25 10.7578 11.25 10.125C11.25 9.51562 10.7344 9 10.125 9H7.5C6.44531 9 5.625 8.17969 5.625 7.125C5.625 6.09375 6.44531 5.25 7.5 5.25H9.11719C8.4375 4.42969 7.5 3.07031 7.5 2.25C7.5 1.00781 8.50781 0 9.75 0C10.9922 0 12 1.00781 12 2.25C12 3.49219 9.75 6 9.75 6H7.5C6.86719 6 6.375 6.51562 6.375 7.125C6.375 7.75781 6.86719 8.25 7.5 8.25H10.125ZM8.25 2.25C8.25 2.71875 8.92969 3.84375 9.75 4.85156C10.5234 3.84375 11.25 2.74219 11.25 2.25C11.25 1.42969 10.5703 0.75 9.75 0.75C8.90625 0.75 8.25 1.42969 8.25 2.25ZM0.75 8.25C0.75 8.71875 1.42969 9.84375 2.25 10.8516C3.02344 9.84375 3.75 8.74219 3.75 8.25C3.75 7.42969 3.07031 6.75 2.25 6.75C1.40625 6.75 0.75 7.42969 0.75 8.25ZM2.25 7.6875C2.97656 7.6875 3 8.8125 2.25 8.8125C1.5 8.8125 1.47656 7.6875 2.25 7.6875Z" fill="#777777"/>
</svg>
