<svg width="162" height="28" viewBox="0 0 162 28" fill="none" xmlns="http://www.w3.org/2000/svg">
<path d="M16.1367 1.26562L19.6172 8.2793L27.3164 9.38672C28.6875 9.59766 29.2676 11.2852 28.2656 12.2871L22.6758 17.666L23.9941 25.3125C24.2051 26.6836 22.7812 27.7383 21.5156 27.1055L14.6602 23.5195L7.75195 27.1582C6.48633 27.791 5.0625 26.7363 5.27344 25.3652L6.5918 17.7188L1.00195 12.2871C0 11.2852 0.580078 9.59766 1.95117 9.38672L9.65039 8.2793L13.1309 1.26562C13.7637 0 15.5566 0.0527344 16.1367 1.26562ZM49.2117 1.26562L52.6922 8.2793L60.3914 9.38672C61.7625 9.59766 62.3426 11.2852 61.3406 12.2871L55.7508 17.666L57.0691 25.3125C57.2801 26.6836 55.8563 27.7383 54.5906 27.1055L47.7352 23.5195L40.827 27.1582C39.5613 27.791 38.1375 26.7363 38.3484 25.3652L39.6668 17.7188L34.077 12.2871C33.075 11.2852 33.6551 9.59766 35.0262 9.38672L42.7254 8.2793L46.2059 1.26562C46.8387 0 48.6316 0.0527344 49.2117 1.26562ZM82.2867 1.26562L85.7672 8.2793L93.4664 9.38672C94.8375 9.59766 95.4176 11.2852 94.4156 12.2871L88.8258 17.666L90.1441 25.3125C90.3551 26.6836 88.9313 27.7383 87.6656 27.1055L80.8102 23.5195L73.902 27.1582C72.6363 27.791 71.2125 26.7363 71.4234 25.3652L72.7418 17.7188L67.152 12.2871C66.15 11.2852 66.7301 9.59766 68.1012 9.38672L75.8004 8.2793L79.2809 1.26562C79.9137 0 81.7066 0.0527344 82.2867 1.26562ZM115.362 1.26562L118.842 8.2793L126.541 9.38672C127.912 9.59766 128.493 11.2852 127.491 12.2871L121.901 17.666L123.219 25.3125C123.43 26.6836 122.006 27.7383 120.741 27.1055L113.885 23.5195L106.977 27.1582C105.711 27.791 104.287 26.7363 104.498 25.3652L105.817 17.7188L100.227 12.2871C99.225 11.2852 99.8051 9.59766 101.176 9.38672L108.875 8.2793L112.356 1.26562C112.989 0 114.782 0.0527344 115.362 1.26562ZM148.437 1.26562L151.917 8.2793L159.616 9.38672C160.988 9.59766 161.568 11.2852 160.566 12.2871L154.976 17.666L156.294 25.3125C156.505 26.6836 155.081 27.7383 153.816 27.1055L146.96 23.5195L140.052 27.1582C138.786 27.791 137.363 26.7363 137.573 25.3652L138.892 17.7188L133.302 12.2871C132.3 11.2852 132.88 9.59766 134.251 9.38672L141.95 8.2793L145.431 1.26562C146.064 0 147.857 0.0527344 148.437 1.26562Z" fill="#FFB800"/>
</svg>
