<svg width="14" height="15" viewBox="0 0 14 15" fill="none" xmlns="http://www.w3.org/2000/svg">
<path d="M13.6172 0.328125C13.8633 0.464844 14 0.765625 14 1.03906L13.9453 9.21484C13.9453 9.57031 13.7266 9.89844 13.3984 10.0078C12.332 10.4453 11.3203 10.6367 10.3633 10.6367C9.35156 10.6367 8.47656 10.418 7.65625 10.2266C6.75391 9.98047 5.93359 9.78906 4.92188 9.78906C2.98047 9.78906 1.25781 10.6641 0.875 10.8555V13.6992C0.875 13.9453 0.65625 14.1367 0.4375 14.1367C0.191406 14.1367 0 13.9453 0 13.6992V0.601562C0 0.355469 0.191406 0.164062 0.4375 0.164062C0.65625 0.164062 0.875 0.355469 0.875 0.601562V1.20312C3.30859 0.21875 4.34766 0.164062 5.05859 0.164062C6.01562 0.164062 6.75391 0.382812 7.46484 0.628906C8.12109 0.847656 8.75 1.06641 9.54297 1.06641C10.3906 1.06641 11.3477 0.820312 12.4688 0.300781C12.5508 0.246094 13.0703 0 13.6172 0.328125ZM13.0977 9.1875L13.125 1.03906C13.125 1.03906 11.4297 1.91406 9.54297 1.91406C8.61328 1.91406 7.875 1.66797 7.19141 1.44922C6.53516 1.23047 5.87891 1.03906 5.05859 1.03906C4.10156 1.03906 2.98047 1.3125 1.64062 1.85938L0.875 2.16016V9.89844L0.929688 9.84375C2.37891 9.21484 3.66406 8.91406 4.92188 8.91406C6.04297 8.91406 6.97266 9.13281 7.875 9.37891C8.69531 9.57031 9.46094 9.76172 10.3633 9.76172C11.2109 9.76172 12.1133 9.59766 13.0977 9.1875Z" fill="#333333" fill-opacity="0.8"/>
</svg>
