<svg width="20" height="17" viewBox="0 0 20 17" fill="none" xmlns="http://www.w3.org/2000/svg">
<path d="M2.8125 7.5625C3.09375 7.5625 3.375 7.84375 3.375 8.125V10.375C3.375 10.6914 3.09375 10.9375 2.8125 10.9375H0.5625C0.246094 10.9375 0 10.6914 0 10.375V8.125C0 7.84375 0.246094 7.5625 0.5625 7.5625H2.8125ZM2.8125 13.1875C3.09375 13.1875 3.375 13.4688 3.375 13.75V16C3.375 16.3164 3.09375 16.5625 2.8125 16.5625H0.5625C0.246094 16.5625 0 16.3164 0 16V13.75C0 13.4688 0.246094 13.1875 0.5625 13.1875H2.8125ZM2.8125 1.9375C3.09375 1.9375 3.375 2.21875 3.375 2.5V4.75C3.375 5.06641 3.09375 5.3125 2.8125 5.3125H0.5625C0.246094 5.3125 0 5.06641 0 4.75V2.5C0 2.21875 0.246094 1.9375 0.5625 1.9375H2.8125ZM17.1562 8.40625C17.6133 8.40625 18 8.79297 18 9.25C18 9.74219 17.6133 10.0938 17.1562 10.0938H6.43359C5.97656 10.0938 5.625 9.74219 5.625 9.25C5.625 8.79297 5.97656 8.40625 6.43359 8.40625H17.1562ZM17.1562 2.78125C17.6133 2.78125 18 3.23828 18 3.66016C18 4.11719 17.6133 4.46875 17.1562 4.46875H6.43359C5.97656 4.46875 5.625 4.04688 5.625 3.625C5.625 3.16797 5.97656 2.78125 6.43359 2.78125H17.1562ZM17.1562 14.0312C17.6133 14.0312 18 14.418 18 14.875C18 15.3672 17.6133 15.7188 17.1562 15.7188H6.43359C5.97656 15.7188 5.625 15.3672 5.625 14.875C5.625 14.418 5.97656 14.0312 6.43359 14.0312H17.1562Z" fill="#777777"/>
</svg>
