<svg width="45" height="45" viewBox="0 0 45 45" fill="none" xmlns="http://www.w3.org/2000/svg">
<g filter="url(#filter0_d_608_3283)">
<rect x="10" y="9" width="25" height="25" rx="12.5" fill="#333333"/>
</g>
<path d="M28.7344 23.3008L25.9453 22.0977C25.4531 21.9062 24.8516 22.043 24.5234 22.4805L23.5938 23.5742C22.1719 22.7812 20.9688 21.5781 20.1758 20.1562L21.2969 19.2539C21.707 18.8984 21.8438 18.2969 21.625 17.8047L20.4492 15.0156C20.2031 14.4688 19.6016 14.168 19.0273 14.3047L16.457 14.9062C15.8828 15.0156 15.5 15.5078 15.5 16.1094C15.5 22.8086 20.9414 28.25 27.6406 28.25C28.2422 28.25 28.7344 27.8672 28.8711 27.293L29.4453 24.7227C29.582 24.1484 29.2812 23.5469 28.7344 23.3008ZM27.9961 27.1016C27.9688 27.2656 27.832 27.4023 27.6406 27.4023C21.4336 27.4023 16.375 22.3164 16.375 16.1094C16.375 15.918 16.4844 15.7812 16.6484 15.7539L19.2188 15.1523C19.2461 15.1523 19.2734 15.125 19.3008 15.125C19.4375 15.125 19.5742 15.2344 19.6562 15.3711L20.832 18.1328C20.8867 18.2969 20.8594 18.4609 20.7227 18.5703L19.3555 19.6914C19.1914 19.8281 19.1367 20.0469 19.2461 20.2383C20.1484 22.0703 21.6797 23.6016 23.5391 24.5039C23.7031 24.6133 23.9219 24.5586 24.0586 24.3945L25.1797 23.0273C25.2891 22.8906 25.4531 22.8633 25.6172 22.918L28.3789 24.0938C28.543 24.1758 28.6523 24.3398 28.5977 24.5312L27.9961 27.1016Z" fill="white"/>
<defs>
<filter id="filter0_d_608_3283" x="0" y="0" width="45" height="45" filterUnits="userSpaceOnUse" color-interpolation-filters="sRGB">
<feFlood flood-opacity="0" result="BackgroundImageFix"/>
<feColorMatrix in="SourceAlpha" type="matrix" values="0 0 0 0 0 0 0 0 0 0 0 0 0 0 0 0 0 0 127 0" result="hardAlpha"/>
<feOffset dy="1"/>
<feGaussianBlur stdDeviation="5"/>
<feComposite in2="hardAlpha" operator="out"/>
<feColorMatrix type="matrix" values="0 0 0 0 0 0 0 0 0 0 0 0 0 0 0 0 0 0 0.15 0"/>
<feBlend mode="normal" in2="BackgroundImageFix" result="effect1_dropShadow_608_3283"/>
<feBlend mode="normal" in="SourceGraphic" in2="effect1_dropShadow_608_3283" result="shape"/>
</filter>
</defs>
</svg>
