<svg width="45" height="45" viewBox="0 0 45 45" fill="none" xmlns="http://www.w3.org/2000/svg">
<g filter="url(#filter0_d_608_3280)">
<rect x="10" y="9" width="25" height="25" rx="12.5" fill="#333333"/>
</g>
<path d="M26.875 16.2188C25.9727 16.2188 26 17.5312 26.875 17.5312C27.75 17.5312 27.7227 16.2188 26.875 16.2188ZM27.3125 23.875H24.25C23.5117 23.875 22.9375 23.3008 22.9375 22.5625C22.9375 21.8516 23.5117 21.25 24.25 21.25H26.875C26.875 21.25 29.5 18.3242 29.5 16.875C29.5 15.4258 28.3242 14.25 26.875 14.25C25.4258 14.25 24.25 15.4258 24.25 16.875C24.25 17.832 25.3438 19.418 26.1367 20.375H24.25C23.0195 20.375 22.0625 21.3594 22.0625 22.5625C22.0625 23.793 23.0195 24.75 24.25 24.75H27.3125C28.0234 24.75 28.625 25.3516 28.625 26.0625C28.625 26.8008 28.0234 27.375 27.3125 27.375H18.8359C19.6289 26.418 20.75 24.832 20.75 23.875C20.75 22.4258 19.5742 21.25 18.125 21.25C16.6758 21.25 15.5 22.4258 15.5 23.875C15.5 25.3242 18.125 28.25 18.125 28.25H27.3125C28.5156 28.25 29.5 27.293 29.5 26.0625C29.5 24.8594 28.5156 23.875 27.3125 23.875ZM25.125 16.875C25.125 15.918 25.8906 15.125 26.875 15.125C27.832 15.125 28.625 15.918 28.625 16.875C28.625 17.4492 27.7773 18.7344 26.875 19.9102C25.918 18.7344 25.125 17.4219 25.125 16.875ZM16.375 23.875C16.375 22.918 17.1406 22.125 18.125 22.125C19.082 22.125 19.875 22.918 19.875 23.875C19.875 24.4492 19.0273 25.7344 18.125 26.9102C17.168 25.7344 16.375 24.4219 16.375 23.875ZM18.125 23.2188C17.2227 23.2188 17.25 24.5312 18.125 24.5312C19 24.5312 18.9727 23.2188 18.125 23.2188Z" fill="white"/>
<defs>
<filter id="filter0_d_608_3280" x="0" y="0" width="45" height="45" filterUnits="userSpaceOnUse" color-interpolation-filters="sRGB">
<feFlood flood-opacity="0" result="BackgroundImageFix"/>
<feColorMatrix in="SourceAlpha" type="matrix" values="0 0 0 0 0 0 0 0 0 0 0 0 0 0 0 0 0 0 127 0" result="hardAlpha"/>
<feOffset dy="1"/>
<feGaussianBlur stdDeviation="5"/>
<feComposite in2="hardAlpha" operator="out"/>
<feColorMatrix type="matrix" values="0 0 0 0 0 0 0 0 0 0 0 0 0 0 0 0 0 0 0.15 0"/>
<feBlend mode="normal" in2="BackgroundImageFix" result="effect1_dropShadow_608_3280"/>
<feBlend mode="normal" in="SourceGraphic" in2="effect1_dropShadow_608_3280" result="shape"/>
</filter>
</defs>
</svg>
