<svg width="18" height="16" viewBox="0 0 18 16" fill="none" xmlns="http://www.w3.org/2000/svg">
<mask id="path-1-outside-1_2403_3792" maskUnits="userSpaceOnUse" x="-0.375" y="-0.408691" width="18" height="16" fill="black">
<rect fill="white" x="-0.375" y="-0.408691" width="18" height="16"/>
<path d="M15.375 8.06006L9.34375 14.3101C8.9375 14.7163 8.28125 14.7163 7.90625 14.3101L1.84375 8.06006C0.09375 6.24756 0.1875 3.24756 2.15625 1.56006C3.84375 0.0913086 6.4375 0.372559 8 1.96631L8.625 2.62256L9.21875 1.96631C10.7812 0.372559 13.3438 0.0913086 15.0938 1.56006C17.0312 3.24756 17.125 6.24756 15.375 8.06006Z"/>
</mask>
<path d="M15.375 8.06006L9.34375 14.3101C8.9375 14.7163 8.28125 14.7163 7.90625 14.3101L1.84375 8.06006C0.09375 6.24756 0.1875 3.24756 2.15625 1.56006C3.84375 0.0913086 6.4375 0.372559 8 1.96631L8.625 2.62256L9.21875 1.96631C10.7812 0.372559 13.3438 0.0913086 15.0938 1.56006C17.0312 3.24756 17.125 6.24756 15.375 8.06006Z" fill="#333333" fill-opacity="0.8"/>
<path d="M15.375 8.06006L14.9434 7.6433L14.9432 7.64342L15.375 8.06006ZM9.34375 14.3101L9.76808 14.7344L9.7755 14.7267L9.34375 14.3101ZM7.90625 14.3101L8.34713 13.9031L8.3421 13.8976L8.33693 13.8923L7.90625 14.3101ZM1.84375 8.06006L1.41211 8.47682L1.41307 8.47781L1.84375 8.06006ZM2.15625 1.56006L2.54674 2.01563L2.55016 2.01264L2.15625 1.56006ZM8 1.96631L8.43453 1.55247L8.42844 1.54627L8 1.96631ZM8.625 2.62256L8.19052 3.03635L8.63628 3.5044L9.06992 3.02511L8.625 2.62256ZM9.21875 1.96631L8.79031 1.54627L8.78189 1.55485L8.77383 1.56376L9.21875 1.96631ZM15.0938 1.56006L15.4879 1.10753L15.4795 1.10047L15.0938 1.56006ZM14.9432 7.64342L8.912 13.8934L9.7755 14.7267L15.8068 8.4767L14.9432 7.64342ZM8.91949 13.8858C8.73773 14.0676 8.47549 14.0421 8.34713 13.9031L7.46537 14.717C8.08701 15.3905 9.13727 15.3651 9.76801 14.7343L8.91949 13.8858ZM8.33693 13.8923L2.27443 7.6423L1.41307 8.47781L7.47557 14.7278L8.33693 13.8923ZM2.27539 7.6433C0.761671 6.07552 0.84408 3.47502 2.54672 2.01561L1.76578 1.1045C-0.46908 3.02009 -0.574171 6.4196 1.41211 8.47682L2.27539 7.6433ZM2.55016 2.01264C3.96428 0.781835 6.19854 0.985872 7.57156 2.38635L8.42844 1.54627C6.67646 -0.240755 3.72322 -0.599218 1.76234 1.10748L2.55016 2.01264ZM7.56552 2.3801L8.19052 3.03635L9.05948 2.20877L8.43448 1.55252L7.56552 2.3801ZM9.06992 3.02511L9.66367 2.36886L8.77383 1.56376L8.18008 2.22001L9.06992 3.02511ZM9.64719 2.38635C11.0157 0.990442 13.225 0.774932 14.708 2.01964L15.4795 1.10047C13.4625 -0.592314 10.5468 -0.245324 8.79031 1.54627L9.64719 2.38635ZM14.6997 2.01251C16.3749 3.47158 16.4578 6.07475 14.9434 7.6433L15.8066 8.47682C17.7922 6.42037 17.6876 3.02354 15.4878 1.10761L14.6997 2.01251Z" fill="white" mask="url(#path-1-outside-1_2403_3792)"/>
</svg>
