<svg width="18" height="15" viewBox="0 0 18 15" fill="none" xmlns="http://www.w3.org/2000/svg">
<path d="M14.9688 1.6875C13.25 0.25 10.7188 0.46875 9.125 2.09375L8.53125 2.75L7.90625 2.09375C6.625 0.78125 4.0625 0 2.0625 1.6875C0.09375 3.375 0 6.375 1.75 8.1875L7.8125 14.4375C8 14.625 8.25 14.7188 8.5 14.7188C8.78125 14.7188 9.03125 14.625 9.21875 14.4375L15.2812 8.1875C17.0312 6.375 16.9375 3.375 14.9688 1.6875ZM14.5625 7.5L8.53125 13.75L2.46875 7.5C1.28125 6.25 1.03125 3.90625 2.71875 2.46875C4.4375 1 6.4375 2.0625 7.1875 2.8125L8.53125 4.1875L9.84375 2.8125C10.5625 2.0625 12.5938 1 14.3125 2.46875C16 3.90625 15.75 6.25 14.5625 7.5Z" fill="#333333" fill-opacity="0.8"/>
</svg>
