<svg width="18" height="18" viewBox="0 0 18 18" fill="none" xmlns="http://www.w3.org/2000/svg">
<path d="M10.5344 16.4925C9.93666 16.6372 9.31321 16.7111 8.68012 16.7111C4.24847 16.7111 0.645947 13.1086 0.645947 8.6769C0.645947 6.78727 1.3176 4.94905 2.53237 3.5029C2.64806 3.36792 2.62878 3.16546 2.49381 3.04977C2.35883 2.93408 2.15637 2.95336 2.04068 3.08833C0.726289 4.64696 0 6.63301 0 8.67369C0 13.4588 3.89175 17.3506 8.6769 17.3506C9.36141 17.3506 10.0363 17.2703 10.6854 17.1128C10.859 17.071 10.965 16.8975 10.9233 16.7239C10.8815 16.5504 10.7079 16.4475 10.5344 16.4861V16.4925ZM8.68012 0C6.57838 0 4.55377 0.758425 2.97907 2.1403C2.8441 2.25599 2.83124 2.46167 2.95015 2.59343C3.06905 2.72519 3.27151 2.74126 3.40327 2.62235C4.85907 1.34653 6.73263 0.642734 8.68012 0.642734C12.9543 0.642734 16.4893 4.03637 16.7014 8.26877C16.7111 8.4423 16.8493 8.58049 17.0228 8.57728C17.2028 8.57728 17.3506 8.42302 17.341 8.24306C17.116 3.66679 13.2949 0 8.6769 0H8.68012Z" fill="#333333"/>
<path d="M3.85865 6.42707C3.85865 6.60382 4.00327 6.74844 4.18002 6.74844C4.35677 6.74844 4.50139 6.60382 4.50139 6.42707C4.50139 6.07357 4.79062 5.78434 5.14412 5.78434C5.49762 5.78434 5.78685 6.07357 5.78685 6.42707C5.78685 6.60382 5.93147 6.74844 6.10822 6.74844C6.28497 6.74844 6.42959 6.60382 6.42959 6.42707C6.42959 5.71685 5.85434 5.1416 5.14412 5.1416C4.4339 5.1416 3.85865 5.71685 3.85865 6.42707ZM12.5356 6.42707C12.5356 6.60382 12.6802 6.74844 12.8569 6.74844C13.0337 6.74844 13.1783 6.60382 13.1783 6.42707C13.1783 5.71685 12.603 5.1416 11.8928 5.1416C11.1826 5.1416 10.6074 5.71685 10.6074 6.42707C10.6074 6.60382 10.752 6.74844 10.9287 6.74844C11.1055 6.74844 11.2501 6.60382 11.2501 6.42707C11.2501 6.07357 11.5393 5.78434 11.8928 5.78434C12.2463 5.78434 12.5356 6.07357 12.5356 6.42707ZM10.5624 12.803C9.96784 13.0504 9.33474 13.1758 8.67916 13.1758C6.68025 13.1758 4.9031 11.9931 4.15753 10.1614C4.09004 9.99745 3.90365 9.91711 3.73975 9.9846C3.57585 10.0521 3.49551 10.2385 3.563 10.4024C4.41141 12.4752 6.41995 13.8153 8.68237 13.8153C9.42151 13.8153 10.1382 13.6739 10.8098 13.3911C10.9737 13.3236 11.0508 13.134 10.9834 12.9701C10.9159 12.8062 10.7263 12.7291 10.5624 12.7966V12.803ZM17.0347 14.7826C17.2114 14.7826 17.3561 14.638 17.3561 14.4612V12.533C17.3561 11.8678 16.9511 11.2958 16.3727 11.0515L16.1541 9.07192C16.0899 8.4806 15.5885 8.03069 14.9908 8.03069C14.3449 8.03069 13.821 8.55452 13.821 9.20046V10.923H12.7412C12.1435 10.923 11.6325 11.3665 11.5747 11.9321C11.5425 12.2502 11.6454 12.5684 11.8607 12.803C11.8768 12.8191 11.8928 12.8383 11.9089 12.8544C11.7 13.0601 11.5715 13.3429 11.5715 13.6578C11.5715 13.9728 11.7 14.2556 11.9089 14.4612C11.7 14.6669 11.5715 14.9497 11.5715 15.2647C11.5715 15.5796 11.7 15.8624 11.9089 16.0681C11.8928 16.0841 11.8768 16.1002 11.8607 16.1195C11.6486 16.3541 11.5457 16.6722 11.5747 16.9904C11.6325 17.556 12.1435 17.9995 12.7412 17.9995H15.7492C16.6362 17.9995 17.3561 17.2796 17.3561 16.3927V15.7499C17.3561 15.5732 17.2114 15.4286 17.0347 15.4286C16.8579 15.4286 16.7133 15.5732 16.7133 15.7499V16.3927C16.7133 16.9229 16.2795 17.3568 15.7492 17.3568H12.7412C12.4713 17.3568 12.2399 17.1671 12.2142 16.9261C12.2013 16.7879 12.2431 16.653 12.3363 16.5501C12.4295 16.4473 12.5548 16.3927 12.6962 16.3927H13.821C13.9978 16.3927 14.1424 16.248 14.1424 16.0713C14.1424 15.8945 13.9978 15.7499 13.821 15.7499H12.6962C12.4295 15.7499 12.2142 15.5346 12.2142 15.2679C12.2142 15.0011 12.4295 14.7858 12.6962 14.7858H13.821C13.9978 14.7858 14.1424 14.6412 14.1424 14.4645C14.1424 14.2877 13.9978 14.1431 13.821 14.1431H12.6962C12.4295 14.1431 12.2142 13.9278 12.2142 13.661C12.2142 13.3943 12.4295 13.179 12.6962 13.179H13.821C13.9978 13.179 14.1424 13.0344 14.1424 12.8576C14.1424 12.6809 13.9978 12.5363 13.821 12.5363H12.6962C12.5581 12.5363 12.4295 12.4784 12.3363 12.3788C12.2431 12.2759 12.2013 12.1442 12.2142 12.0028C12.2399 11.7618 12.4681 11.5722 12.7412 11.5722H15.7492C16.2795 11.5722 16.7133 12.006 16.7133 12.5363V14.4645C16.7133 14.6412 16.8579 14.7858 17.0347 14.7858V14.7826ZM14.4638 10.9262V9.20368C14.4638 8.91445 14.7016 8.67664 14.9908 8.67664C15.2607 8.67664 15.4857 8.8791 15.5146 9.14583L15.7139 10.9262H14.467H14.4638Z" fill="#333333"/>
</svg>
