<svg width="20" height="18" viewBox="0 0 20 18" fill="none" xmlns="http://www.w3.org/2000/svg">
<path d="M14.2533 0C12.5465 0 10.9534 0.826036 9.90401 2.22524C8.8546 0.821822 7.25732 0 5.55467 0C2.49075 0 0 2.63404 0 5.87497C0 13.4315 9.37298 17.7893 9.77336 17.9705C9.8155 17.9874 9.86186 18 9.90401 18C9.94615 18 9.99251 17.9916 10.0347 17.9705C10.435 17.7893 19.808 13.4315 19.808 5.87497C19.808 2.63404 17.3173 0 14.2533 0ZM9.90401 17.3299C8.7661 16.7736 0.63217 12.5549 0.63217 5.87497C0.63217 2.98384 2.84055 0.63217 5.55467 0.63217C7.1941 0.63217 8.71974 1.50035 9.63849 2.95013C9.7565 3.13557 10.0557 3.13557 10.1737 2.95013C11.0925 1.49614 12.6181 0.63217 14.2576 0.63217C16.9675 0.63217 19.1758 2.98384 19.1758 5.87497C19.1758 12.5549 11.0419 16.7736 9.90401 17.3299Z" fill="#333333"/>
</svg>
