<svg width="16" height="13" viewBox="0 0 16 13" fill="none" xmlns="http://www.w3.org/2000/svg">
<path d="M14 0H4.375C3.39062 0 2.625 0.792969 2.625 1.75V7.875C2.625 8.85938 3.39062 9.625 4.375 9.625H14C14.957 9.625 15.75 8.85938 15.75 7.875V1.75C15.75 0.792969 14.957 0 14 0ZM14.4375 7.875C14.4375 8.12109 14.2188 8.3125 14 8.3125H13.5625L10.5547 3.9375C10.4727 3.80078 10.3359 3.71875 10.1992 3.71875C10.0352 3.71875 9.89844 3.80078 9.81641 3.9375L8.12109 6.50781L7.49219 5.66016C7.41016 5.55078 7.30078 5.46875 7.16406 5.46875C7 5.46875 6.89062 5.55078 6.80859 5.66016L4.8125 8.3125H4.375C4.12891 8.3125 3.9375 8.12109 3.9375 7.875V1.75C3.9375 1.53125 4.12891 1.3125 4.375 1.3125H14C14.2188 1.3125 14.4375 1.53125 14.4375 1.75V7.875ZM6.125 2.1875C5.63281 2.1875 5.25 2.59766 5.25 3.0625C5.25 3.55469 5.63281 3.9375 6.125 3.9375C6.58984 3.9375 7 3.55469 7 3.0625C7 2.59766 6.58984 2.1875 6.125 2.1875ZM12.4688 12.25H3.28125C1.44922 12.25 0 10.8008 0 8.96875V2.40625C0 2.05078 0.273438 1.75 0.65625 1.75C1.01172 1.75 1.3125 2.05078 1.3125 2.40625V8.96875C1.3125 10.0625 2.1875 10.9375 3.28125 10.9375H12.4688C12.8242 10.9375 13.125 11.2383 13.125 11.5938C13.125 11.9766 12.8242 12.25 12.4688 12.25Z" fill="#777777"/>
</svg>
