<svg width="27" height="32" viewBox="0 0 27 32" fill="none" xmlns="http://www.w3.org/2000/svg">
<path d="M12.3144 32.0013C11.4733 31.8812 10.628 31.776 9.81471 31.519C4.58192 29.8593 1.35324 26.3779 0.254264 21.0423C-0.355063 18.0858 0.154816 15.2495 1.52601 12.5633C1.62125 12.3773 1.63726 12.1895 1.63726 11.9901C1.63557 9.16959 1.63642 6.3491 1.63642 3.52861C1.63642 2.93781 1.81846 2.65743 2.20529 2.65243C2.59634 2.64659 2.79692 2.9495 2.79692 3.54947C2.79692 5.73493 2.79692 7.92123 2.79692 10.1067C2.79692 10.2202 2.79692 10.3345 2.79692 10.5273C5.60505 7.15185 9.14386 5.32855 13.5137 5.32938C17.8818 5.33022 21.418 7.14852 24.1891 10.478C24.2624 10.3612 24.2279 10.2452 24.2287 10.1367C24.2312 7.93041 24.2304 5.72409 24.2312 3.51693C24.2312 3.36089 24.2228 3.20401 24.2784 3.0538C24.377 2.78761 24.5726 2.64158 24.8549 2.65994C25.1364 2.67913 25.3184 2.84936 25.374 3.12557C25.3985 3.24656 25.3909 3.37424 25.3909 3.49857C25.3917 6.32991 25.3934 9.16041 25.3884 11.9917C25.3884 12.2279 25.4372 12.4365 25.546 12.6476C26.4031 14.3216 26.8716 16.0948 26.9795 17.9723C27.3613 24.638 22.5954 30.6862 15.7993 31.8378C15.4588 31.8954 15.1166 31.9471 14.7761 32.0013C13.9553 32.0013 13.1344 32.0013 12.3144 32.0013ZM13.4951 30.8773C20.0983 30.9407 25.8156 25.631 25.8536 18.7167C25.8898 11.94 20.3696 6.47177 13.528 6.46342C6.7133 6.45591 1.17542 11.8999 1.16952 18.6249C1.16278 25.5818 6.88859 30.9299 13.4951 30.8773Z" fill="#CDCDCD"/>
<path d="M10.3136 2.4413C10.3136 3.02375 10.317 3.60538 10.3128 4.18783C10.3094 4.5842 10.0852 4.84038 9.75147 4.84372C9.42869 4.84706 9.17164 4.61257 9.16743 4.23539C9.1531 3.0296 9.15226 1.8238 9.16658 0.617996C9.17164 0.214116 9.42194 -0.0120235 9.76748 0.000493467C10.1147 0.0130104 10.3102 0.244991 10.3128 0.663057C10.3161 1.25636 10.3136 1.84883 10.3136 2.4413Z" fill="#CDCDCD"/>
<path d="M16.7124 2.4001C16.7124 1.81764 16.7091 1.23602 16.7133 0.653564C16.7166 0.240504 16.9189 0.00768891 17.2687 0.000178742C17.6117 -0.00733143 17.8561 0.222146 17.8603 0.627695C17.8738 1.82265 17.8738 3.01843 17.8603 4.21338C17.8561 4.60809 17.5973 4.85175 17.2636 4.84257C16.9316 4.83339 16.7158 4.57804 16.7124 4.17667C16.7091 3.58503 16.7124 2.99256 16.7124 2.4001Z" fill="#CDCDCD"/>
<path d="M14.0925 2.1329C14.0925 2.63107 14.0976 3.13008 14.0908 3.62825C14.0849 4.053 13.865 4.30334 13.5152 4.305C13.1646 4.30667 12.9371 4.05717 12.9345 3.6341C12.9278 2.64776 12.9286 1.66059 12.9337 0.674255C12.9362 0.248679 13.1562 0.00167733 13.5093 8.40338e-06C13.8633 -0.00166052 14.0849 0.245341 14.0908 0.668414C14.0984 1.15657 14.0925 1.64474 14.0925 2.1329Z" fill="#CDCDCD"/>
<path d="M5.41698 4.79385C5.41698 4.45088 5.4094 4.10708 5.41867 3.76412C5.42794 3.42366 5.64706 3.20085 5.95889 3.19168C6.2842 3.1825 6.52523 3.40864 6.53029 3.76245C6.53956 4.47007 6.53956 5.17686 6.52945 5.88449C6.52523 6.20576 6.26987 6.45026 5.97574 6.45109C5.68246 6.45192 5.42878 6.20492 5.41951 5.88616C5.4094 5.52233 5.41783 5.15767 5.41698 4.79385Z" fill="#CDCDCD"/>
<path d="M21.6054 4.8176C21.6054 5.16057 21.6104 5.50436 21.6037 5.84733C21.5961 6.19113 21.3559 6.44647 21.0517 6.44981C20.7466 6.45315 20.4938 6.20031 20.4904 5.85818C20.4828 5.1614 20.482 4.46379 20.4904 3.76701C20.4954 3.4107 20.7314 3.18372 21.0559 3.18956C21.3787 3.1954 21.5902 3.42488 21.6054 3.78704C21.6062 3.8079 21.6062 3.82876 21.6062 3.84962C21.6062 4.17256 21.6062 4.4955 21.6054 4.8176Z" fill="#CDCDCD"/>
<path d="M6.53253 1.11684C6.53253 1.30292 6.54433 1.49068 6.53 1.67593C6.50556 1.97467 6.28476 2.16743 5.98894 2.16993C5.69229 2.1716 5.44619 1.98385 5.43018 1.69262C5.40827 1.28957 5.40911 0.884024 5.43018 0.481813C5.44535 0.18975 5.69229 -0.00134169 5.98557 0.00199616C6.28139 0.00533401 6.49461 0.198095 6.53169 0.495998C6.53422 0.51686 6.5359 0.537722 6.5359 0.557749C6.5359 0.743834 6.5359 0.930754 6.5359 1.11684C6.53506 1.11684 6.53338 1.11684 6.53253 1.11684Z" fill="#CDCDCD"/>
<path d="M20.4997 1.07841C20.4997 0.88148 20.4854 0.683712 20.5031 0.488448C20.53 0.191379 20.7576 0.0011214 21.0534 0.00195586C21.3475 0.00279032 21.5869 0.195551 21.602 0.490117C21.6223 0.882315 21.6223 1.27785 21.6029 1.67005C21.5877 1.97963 21.3433 2.17573 21.0332 2.16989C20.7272 2.16405 20.5149 1.95961 20.4972 1.6375C20.4871 1.45142 20.4955 1.2645 20.4955 1.07841C20.4972 1.07841 20.498 1.07841 20.4997 1.07841Z" fill="#CDCDCD"/>
<path d="M21.6106 16.6568C21.6258 17.1791 21.4126 17.6039 21.0477 17.9669C20.3431 18.6678 19.6461 19.3763 18.9357 20.0714C18.6592 20.3417 18.5505 20.6238 18.6247 21.0218C18.8253 22.095 18.9955 23.1739 19.1523 24.2545C19.2525 24.9472 18.9761 25.5037 18.3938 25.8901C17.835 26.2606 17.2434 26.2431 16.661 25.9318C15.7542 25.4478 14.8482 24.9622 13.9498 24.464C13.654 24.2996 13.391 24.2913 13.0919 24.4573C12.2027 24.9505 11.3026 25.4253 10.4085 25.9101C9.81767 26.2306 9.22098 26.2706 8.6479 25.8968C8.04025 25.5004 7.77141 24.9238 7.88013 24.2061C8.04363 23.1264 8.21471 22.0482 8.41108 20.9743C8.47765 20.6113 8.37315 20.3501 8.12537 20.1048C7.39722 19.3829 6.66822 18.662 5.95101 17.9293C5.25067 17.215 5.23887 16.1344 5.89539 15.4493C6.28812 15.0396 6.80475 14.9603 7.32727 14.8835C8.18943 14.7567 9.04906 14.6165 9.9129 14.5038C10.2525 14.4596 10.4649 14.3036 10.6082 14.0007C11.081 13.0018 11.5496 12.0005 12.0502 11.0149C12.5483 10.0361 13.793 9.81416 14.6181 10.5293C14.8212 10.7054 14.9476 10.9315 15.0614 11.1677C15.5089 12.0981 15.9623 13.0252 16.3989 13.9606C16.5557 14.2969 16.784 14.4604 17.1641 14.508C18.1426 14.6307 19.1177 14.7876 20.0919 14.9444C21.0274 15.0963 21.6081 15.7605 21.6106 16.6568ZM20.4695 16.6759C20.4779 16.3647 20.306 16.1411 19.9799 16.0885C18.9441 15.9224 17.9075 15.7597 16.8692 15.6137C16.1579 15.5135 15.6868 15.1389 15.3901 14.4997C14.9603 13.5734 14.5069 12.658 14.0686 11.7359C13.9532 11.4923 13.8394 11.267 13.5116 11.2678C13.1964 11.2686 13.0851 11.4881 12.9747 11.7184C12.5146 12.6764 12.0519 13.6335 11.5934 14.5923C11.3212 15.1622 10.8787 15.5027 10.2466 15.5987C9.18896 15.7597 8.13043 15.9191 7.07359 16.086C6.71878 16.1419 6.56961 16.3388 6.57467 16.6885C6.5772 16.9038 6.68339 17.059 6.83003 17.2042C7.56409 17.9335 8.29562 18.6661 9.02714 19.3988C9.45106 19.8235 9.65838 20.3284 9.56399 20.9275C9.38785 22.0466 9.20413 23.1647 9.01703 24.2812C8.97321 24.5433 9.0381 24.7561 9.24542 24.9196C9.46117 25.0907 9.6744 25.0214 9.8893 24.9038C10.7818 24.4173 11.6827 23.945 12.5685 23.4468C13.2031 23.0905 13.815 23.0846 14.4504 23.4393C15.3471 23.9391 16.2548 24.4206 17.1574 24.9121C17.363 25.0239 17.5678 25.0848 17.7752 24.928C17.9858 24.7686 18.0617 24.5566 18.017 24.2946C17.8426 23.2699 17.6917 22.241 17.4962 21.2204C17.3512 20.4586 17.5383 19.8352 18.1005 19.2937C18.8084 18.6119 19.4927 17.9059 20.1905 17.2142C20.3431 17.0631 20.4619 16.8996 20.4695 16.6759Z" fill="#D3427A"/>
<path d="M13.9245 8.58468C11.3388 8.59719 9.36252 9.22721 7.58258 10.4697C7.52274 10.5115 7.46459 10.5573 7.40223 10.5957C7.10473 10.7785 6.77942 10.7242 6.59485 10.4622C6.42039 10.2152 6.46927 9.90313 6.73391 9.68617C7.09124 9.39327 7.48482 9.15128 7.88682 8.92514C9.77043 7.86871 11.7973 7.35551 13.9582 7.45064C18.6954 7.65842 22.659 10.6458 24.1794 14.8857C25.2303 17.8172 25.0702 20.7078 23.7377 23.5291C23.6931 23.6234 23.6467 23.7185 23.5877 23.8028C23.4158 24.049 23.125 24.1249 22.8672 23.9972C22.6093 23.8704 22.4829 23.5917 22.5857 23.3138C22.6834 23.0509 22.8174 22.8014 22.9253 22.5419C25.3011 16.8242 22.0328 10.398 15.98 8.88926C15.1743 8.68815 14.3534 8.57633 13.9245 8.58468Z" fill="#CDCDCD"/>
<path d="M14.2354 29.896C7.93145 29.8926 3.18831 25.8789 2.31772 20.4298C1.95786 18.1785 2.26547 16.0172 3.2237 13.9461C3.27596 13.8326 3.32989 13.7191 3.39394 13.6114C3.56671 13.3235 3.86758 13.2276 4.14907 13.3636C4.43224 13.5013 4.54012 13.7883 4.41455 14.1046C4.33785 14.2982 4.23756 14.4826 4.15581 14.6737C2.47448 18.5848 3.35855 22.9916 6.44311 25.9415C8.07472 27.5019 10.03 28.4273 12.2911 28.681C14.8945 28.9731 17.277 28.3864 19.4227 26.8861C19.8896 26.5598 20.2107 26.559 20.4374 26.8861C20.6489 27.1915 20.5326 27.5036 20.0893 27.8132C18.1139 29.1934 15.9142 29.8793 14.2354 29.896Z" fill="#CDCDCD"/>
</svg>
