<svg width="38" height="28" viewBox="0 0 38 28" fill="none" xmlns="http://www.w3.org/2000/svg">
<g clip-path="url(#clip0_2_44132)">
<path d="M6.70166 1.32333C3.44346 4.49247 1.15752 8.8788 0.296586 13.5917C-0.00771129 15.2913 -0.0967738 18.3195 0.118461 19.7667C0.341117 21.2734 0.905179 22.7355 1.71416 23.9081C3.72549 26.8249 7.41416 28.1015 10.895 27.0921C12.2606 26.6988 13.3665 26.0308 14.4427 24.9546C15.4892 23.9081 16.0458 23.0175 16.4837 21.7113C17.2036 19.5663 17.0478 17.2359 16.0606 15.2394C14.8657 12.8124 12.4759 11.0386 9.90791 10.6601C8.83916 10.5042 8.95049 10.6007 9.00245 9.85107C9.11377 8.29247 9.7001 6.71161 10.8134 4.92294C11.4665 3.8913 11.5259 4.03974 9.64073 2.15458C7.65166 0.172941 7.83721 0.224896 6.70166 1.32333ZM9.50713 4.59638C8.77979 5.7913 8.16377 7.30536 7.90401 8.58935C7.74073 9.36864 7.71104 10.8753 7.85205 11.2761C7.99307 11.6546 8.1712 11.7511 8.90596 11.8031C11.6001 12.0183 13.9083 13.6066 15.029 16.0261C15.5263 17.0949 15.6228 17.5995 15.6153 19.0097C15.6153 20.1675 15.5931 20.3308 15.4075 20.9394C14.6579 23.4035 12.706 25.296 10.2419 25.9566C9.3587 26.1941 7.58487 26.2015 6.73877 25.964C3.80713 25.155 1.80323 22.7281 1.33565 19.4253C1.22432 18.6089 1.23916 16.041 1.37276 15.0019C1.57315 13.3765 1.90713 11.9441 2.41182 10.5117C3.45088 7.56513 5.21729 4.69286 7.41416 2.3995L7.75557 2.05067L8.77979 3.07489L9.81143 4.10653L9.50713 4.59638Z" fill="#D3427A"/>
<path d="M27.4998 1.62749C23.915 5.27906 21.681 10.1329 21.1466 15.4321C21.0205 16.7087 21.1021 19.3954 21.2877 20.3083C22.156 24.472 25.2287 27.2404 29.1771 27.4111C31.5595 27.515 33.6599 26.7431 35.3595 25.1325C36.7104 23.8486 37.5564 22.3048 37.8904 20.4939C38.0611 19.5958 38.0091 17.7775 37.7939 16.9611C36.9478 13.7845 34.5876 11.4689 31.4334 10.7341C31.0845 10.6525 30.6763 10.5857 30.5205 10.5857C30.0603 10.5857 30.0306 10.5337 30.09 9.8064C30.2162 8.28492 30.7728 6.77828 31.8935 4.93023C32.2943 4.2771 32.3685 4.1064 32.3314 3.92828C32.2943 3.77984 31.8193 3.24546 30.7802 2.2064C29.949 1.38257 29.2216 0.670069 29.1623 0.632959C29.1029 0.59585 28.9396 0.566162 28.7986 0.566162C28.5611 0.566162 28.4498 0.662645 27.4998 1.62749ZM30.3943 4.94507C29.281 6.89703 28.6724 9.19038 28.8654 10.7267C28.9841 11.6841 29.0361 11.7286 29.9935 11.8028C33.0884 12.0478 35.5748 14.0443 36.4951 17.0204C36.6806 17.6216 36.6955 17.77 36.6955 18.9724C36.6955 20.1747 36.6806 20.3232 36.4951 20.9243C35.8345 23.0544 34.5283 24.5833 32.5615 25.5036C31.515 25.9935 30.8619 26.1345 29.5779 26.1345C28.6502 26.1345 28.3607 26.1048 27.8337 25.9638C25.288 25.281 23.3212 23.2103 22.6459 20.5161C22.4084 19.581 22.349 18.9204 22.3416 17.4138C22.3416 14.1556 22.9947 11.2685 24.4123 8.32203C25.4513 6.16226 26.5498 4.55914 28.3236 2.6146L28.8357 2.05796L29.8599 3.07476L30.8767 4.09156L30.3943 4.94507Z" fill="#D3427A"/>
</g>
<defs>
<clipPath id="clip0_2_44132">
<rect width="38" height="28" fill="white"/>
</clipPath>
</defs>
</svg>
