<svg width="14" height="13" viewBox="0 0 14 13" fill="none" xmlns="http://www.w3.org/2000/svg">
<path d="M7.02734 0C3.14453 0 0.0273438 2.54297 0.0273438 5.6875C0.0273438 6.97266 0.574219 8.17578 1.47656 9.13281C1.06641 10.1992 0.21875 11.1289 0.21875 11.1289C0.0273438 11.3203 0 11.5938 0.0820312 11.8398C0.164062 12.1133 0.410156 12.25 0.683594 12.25C2.35156 12.25 3.66406 11.5664 4.48438 10.9922C5.25 11.2383 6.125 11.375 7.02734 11.375C10.8828 11.375 14 8.83203 14 5.71484C14 2.59766 10.8828 0 7.02734 0ZM7.02734 10.5C6.23438 10.5 5.46875 10.3906 4.73047 10.1719C4.48438 10.0898 4.18359 10.1172 3.96484 10.2812C3.36328 10.7188 2.37891 11.2383 1.14844 11.375C1.47656 10.9648 1.96875 10.2539 2.26953 9.46094C2.40625 9.16016 2.32422 8.83203 2.10547 8.55859C1.3125 7.71094 0.902344 6.72656 0.902344 5.6875C0.902344 3.03516 3.63672 0.875 7 0.875C10.3633 0.875 13.0977 3.03516 13.0977 5.6875C13.0977 8.33984 10.3906 10.5 7.02734 10.5ZM9.46094 3.00781C9.24219 2.78906 8.99609 2.65234 8.69531 2.625C8.33984 2.59766 7.98438 2.70703 7.73828 2.95312L4.32031 6.37109C4.26562 6.42578 4.23828 6.50781 4.21094 6.58984L3.88281 8.25781C3.82812 8.55859 4.07422 8.80469 4.40234 8.75L6.07031 8.42188C6.15234 8.39453 6.23438 8.36719 6.28906 8.3125L9.65234 4.94922C9.87109 4.75781 10.0078 4.48438 10.0352 4.18359C10.0625 3.82812 9.95312 3.5 9.67969 3.25391L9.46094 3.00781ZM5.76953 7.60156L4.86719 7.76562L5.03125 6.89062L7.41016 4.51172L8.14844 5.25L5.76953 7.60156ZM9.07812 4.32031L8.75 4.62109L8.03906 3.91016L8.33984 3.60938C8.47656 3.47266 8.69531 3.47266 8.80469 3.60938L9.07812 3.85547C9.1875 3.99219 9.1875 4.18359 9.07812 4.32031Z" fill="#333333" fill-opacity="0.8"/>
</svg>
