<svg width="13" height="13" viewBox="0 0 13 13" fill="none" xmlns="http://www.w3.org/2000/svg">
<path d="M10.0625 7.875C9.35156 7.875 8.75 8.23047 8.33984 8.72266L4.26562 6.69922C4.32031 6.50781 4.375 6.34375 4.375 6.125C4.375 5.93359 4.32031 5.74219 4.26562 5.57812L8.3125 3.55469C8.75 4.04688 9.35156 4.375 10.0625 4.375C11.2656 4.375 12.25 3.41797 12.25 2.1875C12.25 0.984375 11.2656 0 10.0625 0C8.83203 0 7.875 0.984375 7.875 2.1875C7.875 2.40625 7.90234 2.57031 7.95703 2.76172L3.88281 4.78516C3.47266 4.29297 2.87109 3.9375 2.1875 3.9375C0.957031 3.9375 0 4.92188 0 6.125C0 7.35547 0.957031 8.3125 2.1875 8.3125C2.87109 8.3125 3.47266 7.98438 3.88281 7.49219L7.95703 9.51562C7.90234 9.67969 7.875 9.87109 7.875 10.0625C7.875 11.293 8.83203 12.25 10.0625 12.25C11.2656 12.25 12.25 11.293 12.25 10.0625C12.25 8.85938 11.2656 7.875 10.0625 7.875ZM10.0625 0.875C10.7734 0.875 11.375 1.47656 11.375 2.1875C11.375 2.92578 10.7734 3.5 10.0625 3.5C9.32422 3.5 8.75 2.92578 8.75 2.1875C8.75 1.47656 9.32422 0.875 10.0625 0.875ZM2.1875 7.4375C1.44922 7.4375 0.875 6.86328 0.875 6.125C0.875 5.41406 1.44922 4.8125 2.1875 4.8125C2.89844 4.8125 3.5 5.41406 3.5 6.125C3.5 6.86328 2.89844 7.4375 2.1875 7.4375ZM10.0625 11.375C9.32422 11.375 8.75 10.8008 8.75 10.0625C8.75 9.35156 9.32422 8.75 10.0625 8.75C10.7734 8.75 11.375 9.35156 11.375 10.0625C11.375 10.8008 10.7734 11.375 10.0625 11.375Z" fill="#333333" fill-opacity="0.8"/>
</svg>
