<svg width="25" height="18" viewBox="0 0 25 18" fill="none" xmlns="http://www.w3.org/2000/svg">
<path d="M22.3046 8.08594C22.4218 7.69531 22.4999 7.30469 22.4999 6.875C22.4999 4.49219 20.5078 2.5 18.1249 2.5C17.4609 2.5 16.8359 2.65625 16.2499 2.92969C14.9999 1.17188 12.9296 0 10.6249 0C6.91401 0 3.90619 2.92969 3.74994 6.60156C1.52338 7.38281 -5.62668e-05 9.49219 -5.62668e-05 11.875C-5.62668e-05 15 2.49994 17.5 5.62494 17.5H19.9999C22.7343 17.5 24.9999 15.2734 24.9999 12.5C24.9999 10.6641 23.9843 8.98438 22.3046 8.08594ZM19.8046 16.25H5.82026C3.55463 16.25 1.48432 14.6094 1.24994 12.3438C1.01557 10.1562 2.46088 8.20312 4.45307 7.65625C4.76557 7.53906 4.99994 7.22656 4.99994 6.91406C4.99994 6.91406 4.99994 6.91406 4.99994 6.875C4.96088 4.53125 6.44526 2.34375 8.67182 1.60156C11.4843 0.664062 14.1015 1.83594 15.4296 3.98438C15.6249 4.33594 16.1328 4.45312 16.5234 4.21875C17.1874 3.82812 18.0078 3.67188 18.8671 3.86719C19.9218 4.10156 20.7812 4.92188 21.0937 5.9375C21.3281 6.71875 21.2499 7.46094 20.9765 8.08594C20.8203 8.47656 21.0546 8.90625 21.4453 9.02344C22.9296 9.64844 23.9062 11.1719 23.7109 12.9297C23.4765 14.8828 21.7578 16.25 19.8046 16.25ZM9.80463 9.21875L11.8749 7.14844V13.75C11.8749 14.1016 12.1484 14.375 12.4999 14.375C12.8124 14.375 13.1249 14.1016 13.1249 13.75V7.14844L15.1562 9.21875C15.3906 9.45312 15.8203 9.45312 16.0546 9.21875C16.289 8.98438 16.289 8.55469 16.0546 8.32031L12.9296 5.19531C12.8124 5.07812 12.6562 5 12.4999 5C12.3046 5 12.1484 5.07812 12.0312 5.19531L8.90619 8.32031C8.67182 8.55469 8.67182 8.98438 8.90619 9.21875C9.14057 9.45312 9.57026 9.45312 9.80463 9.21875Z" fill="#D3427A"/>
</svg>
