<svg width="149" height="21" viewBox="0 0 149 21" fill="none" xmlns="http://www.w3.org/2000/svg">
<path d="M20 10C20 8.59375 19.2578 7.34375 18.1641 6.64062C18.4375 5.35156 18.0859 3.94531 17.0703 2.92969C16.0938 1.95312 14.6875 1.5625 13.3984 1.83594C12.6562 0.742188 11.4453 0 10 0C8.59375 0 7.34375 0.742188 6.60156 1.83594C5.35156 1.5625 3.94531 1.95312 2.92969 2.92969C1.95312 3.94531 1.5625 5.35156 1.83594 6.64062C0.742188 7.34375 0 8.59375 0 10C0 11.4453 0.742188 12.6953 1.83594 13.3984C1.5625 14.6875 1.95312 16.0938 2.92969 17.0703C3.94531 18.0859 5.3125 18.4766 6.60156 18.2031C7.34375 19.2969 8.59375 20 10 20C11.4453 20 12.6562 19.2969 13.3984 18.2031C14.6875 18.4766 16.0938 18.0859 17.0703 17.0703C18.0859 16.0938 18.4375 14.6875 18.1641 13.3984C19.2969 12.6953 20 11.4453 20 10ZM13.7891 8.47656L9.41406 12.8516C9.25781 13.0469 9.02344 13.125 8.78906 13.125C8.51562 13.125 8.28125 13.0469 8.125 12.8516L6.25 10.9766C5.85938 10.625 5.85938 10.0391 6.25 9.6875C6.60156 9.29688 7.1875 9.29688 7.53906 9.6875L8.78906 10.8984L12.5 7.1875C12.8516 6.79688 13.4375 6.79688 13.7891 7.1875C14.1797 7.53906 14.1797 8.125 13.7891 8.47656Z" fill="#007B2A"/>
<path d="M32.7266 17.5L28.9941 7.54688H30.4502C30.5322 7.77474 30.9492 8.95508 31.7012 11.0879C32.4577 13.2207 33.0342 14.8385 33.4307 15.9414C33.8226 14.8294 34.3945 13.2184 35.1465 11.1084C35.903 8.99837 36.3291 7.8112 36.4248 7.54688H37.7988L34.0938 17.5H32.7266ZM40.0273 13.3096H44.0537C44.0081 12.667 43.8213 12.1725 43.4932 11.8262C43.165 11.4798 42.7275 11.3066 42.1807 11.3066C41.6064 11.3066 41.1257 11.4844 40.7383 11.8398C40.3555 12.1953 40.1185 12.6852 40.0273 13.3096ZM42.3379 17.6504C41.2214 17.6504 40.335 17.32 39.6787 16.6592C39.0225 15.9938 38.6943 15.112 38.6943 14.0137C38.6943 12.9336 39.0088 12.0472 39.6377 11.3545C40.2712 10.6572 41.1074 10.3086 42.1465 10.3086C42.8027 10.3086 43.3633 10.4613 43.8281 10.7666C44.2975 11.0719 44.6439 11.4867 44.8672 12.0107C45.0951 12.5348 45.209 13.1432 45.209 13.8359C45.209 13.9225 45.2021 14.0342 45.1885 14.1709H39.9932C40.0068 14.9548 40.2324 15.5609 40.6699 15.9893C41.1074 16.4131 41.6862 16.625 42.4062 16.625C43.2448 16.625 43.9876 16.3652 44.6348 15.8457L45.0107 16.7754C44.2588 17.3587 43.3678 17.6504 42.3379 17.6504ZM47.1982 17.5V12.209C47.1982 12.054 47.1891 11.833 47.1709 11.5459C47.1572 11.2588 47.1436 11.0104 47.1299 10.8008L47.1094 10.4863H48.4424L48.4561 11.5801C48.8799 10.7415 49.5042 10.3223 50.3291 10.3223C50.5889 10.3223 50.8258 10.3496 51.04 10.4043L51.0332 11.5186C50.7643 11.4456 50.5068 11.4092 50.2607 11.4092C49.723 11.4092 49.29 11.5983 48.9619 11.9766C48.6338 12.3503 48.4697 12.8903 48.4697 13.5967V17.5H47.1982ZM52.6533 8.71582V7.54688H53.8975V8.71582H52.6533ZM52.6465 17.5V10.4863H53.8975V17.5H52.6465ZM56.748 17.5V11.3271H55.4971V10.4863H56.748V9.91211C56.748 9.67057 56.7526 9.46322 56.7617 9.29004C56.7754 9.1123 56.7982 8.93685 56.8301 8.76367C56.862 8.58594 56.9076 8.43783 56.9668 8.31934C57.026 8.19629 57.1012 8.0778 57.1924 7.96387C57.2881 7.84993 57.402 7.75879 57.5342 7.69043C57.6663 7.61751 57.8236 7.55371 58.0059 7.49902C58.1882 7.44434 58.3955 7.4056 58.6279 7.38281C58.8649 7.36003 59.1338 7.34863 59.4346 7.34863H59.7559L59.7285 8.32617C59.4505 8.32617 59.2204 8.33529 59.0381 8.35352C58.8558 8.36719 58.6986 8.39909 58.5664 8.44922C58.4342 8.49935 58.3317 8.55632 58.2588 8.62012C58.1904 8.67936 58.1357 8.77279 58.0947 8.90039C58.0537 9.02344 58.0286 9.15104 58.0195 9.2832C58.0104 9.41081 58.0059 9.58626 58.0059 9.80957V10.4863H59.6807V11.3271H58.0059V17.5H56.748ZM61.1846 8.71582V7.54688H62.4287V8.71582H61.1846ZM61.1777 17.5V10.4863H62.4287V17.5H61.1777ZM65.5801 13.3096H69.6064C69.5609 12.667 69.374 12.1725 69.0459 11.8262C68.7178 11.4798 68.2803 11.3066 67.7334 11.3066C67.1592 11.3066 66.6784 11.4844 66.291 11.8398C65.9082 12.1953 65.6712 12.6852 65.5801 13.3096ZM67.8906 17.6504C66.7741 17.6504 65.8877 17.32 65.2314 16.6592C64.5752 15.9938 64.2471 15.112 64.2471 14.0137C64.2471 12.9336 64.5615 12.0472 65.1904 11.3545C65.8239 10.6572 66.6602 10.3086 67.6992 10.3086C68.3555 10.3086 68.916 10.4613 69.3809 10.7666C69.8503 11.0719 70.1966 11.4867 70.4199 12.0107C70.6478 12.5348 70.7617 13.1432 70.7617 13.8359C70.7617 13.9225 70.7549 14.0342 70.7412 14.1709H65.5459C65.5596 14.9548 65.7852 15.5609 66.2227 15.9893C66.6602 16.4131 67.2389 16.625 67.959 16.625C68.7975 16.625 69.5404 16.3652 70.1875 15.8457L70.5635 16.7754C69.8115 17.3587 68.9206 17.6504 67.8906 17.6504ZM75.6084 16.625C76.2965 16.625 76.8275 16.3812 77.2012 15.8936C77.5749 15.4059 77.7617 14.752 77.7617 13.9316C77.7617 13.1615 77.5726 12.5371 77.1943 12.0586C76.8161 11.5755 76.2943 11.334 75.6289 11.334C74.9635 11.334 74.4463 11.5778 74.0771 12.0654C73.708 12.5485 73.5234 13.1888 73.5234 13.9863C73.5234 14.7793 73.7035 15.4173 74.0635 15.9004C74.4235 16.3835 74.9385 16.625 75.6084 16.625ZM75.4238 17.6504C74.485 17.6504 73.7148 17.32 73.1133 16.6592C72.5163 15.9938 72.2178 15.112 72.2178 14.0137C72.2178 13.2936 72.3454 12.6579 72.6006 12.1064C72.8558 11.5505 73.2318 11.113 73.7285 10.7939C74.2298 10.4704 74.8177 10.3086 75.4922 10.3086C76.0299 10.3086 76.4993 10.4294 76.9004 10.6709C77.3014 10.9124 77.5794 11.2018 77.7344 11.5391V7.3418H78.999V15.6816C79.0036 16.1009 79.0195 16.707 79.0469 17.5H77.7686L77.7412 16.3105C77.5999 16.6751 77.3265 16.9896 76.9209 17.2539C76.5199 17.5182 76.0208 17.6504 75.4238 17.6504ZM88.8838 16.625C89.5492 16.625 90.0573 16.3812 90.4082 15.8936C90.7637 15.4059 90.9414 14.7474 90.9414 13.918C90.9414 13.1478 90.7591 12.5257 90.3945 12.0518C90.0299 11.5732 89.5241 11.334 88.877 11.334C88.1888 11.334 87.6419 11.5778 87.2363 12.0654C86.8307 12.5531 86.6279 13.1888 86.6279 13.9727C86.6279 14.7656 86.8285 15.4059 87.2295 15.8936C87.6351 16.3812 88.1865 16.625 88.8838 16.625ZM89.0479 17.6504C88.4873 17.6504 87.9928 17.5228 87.5645 17.2676C87.1406 17.0124 86.8376 16.6934 86.6553 16.3105L86.6484 17.5H85.3633C85.3952 16.4382 85.4111 15.8229 85.4111 15.6543V7.3418H86.6758V11.6758C86.8444 11.3066 87.1361 10.9876 87.5508 10.7188C87.9701 10.4453 88.4759 10.3086 89.0684 10.3086C90.0391 10.3086 90.8115 10.6367 91.3857 11.293C91.9645 11.9447 92.2539 12.8151 92.2539 13.9043C92.2539 15.0299 91.9531 15.9368 91.3516 16.625C90.75 17.3086 89.9821 17.6504 89.0479 17.6504ZM94.3799 20.46L93.8672 19.5986C95.002 19.2204 95.7061 18.6211 95.9795 17.8008L96.0957 17.4453L93.2314 10.4863H94.5508L96.7178 16.0918L98.748 10.4863H100.013L97.1826 17.8691C96.932 18.5299 96.5651 19.0859 96.082 19.5371C95.6035 19.9883 95.0361 20.2959 94.3799 20.46ZM109.891 17.6504C108.387 17.6504 107.202 17.1878 106.336 16.2627C105.475 15.3376 105.044 14.0889 105.044 12.5166C105.044 11.5003 105.233 10.6071 105.611 9.83691C105.994 9.06217 106.555 8.45833 107.293 8.02539C108.031 7.58789 108.902 7.36914 109.904 7.36914C111.367 7.36914 112.532 7.8431 113.397 8.79102C114.268 9.73438 114.703 10.9762 114.703 12.5166C114.703 14.0843 114.275 15.333 113.418 16.2627C112.561 17.1878 111.385 17.6504 109.891 17.6504ZM109.877 16.5498C110.989 16.5498 111.834 16.1921 112.413 15.4766C112.992 14.7565 113.281 13.7699 113.281 12.5166C113.281 11.2907 112.99 10.3109 112.406 9.57715C111.827 8.83887 110.989 8.46973 109.891 8.46973C108.797 8.46973 107.947 8.84115 107.341 9.58398C106.739 10.3223 106.438 11.2998 106.438 12.5166C106.438 13.7653 106.735 14.7497 107.327 15.4697C107.92 16.1898 108.77 16.5498 109.877 16.5498ZM117.971 17.5L115.64 10.4863H116.979C117.048 10.7142 117.289 11.514 117.704 12.8857C118.119 14.2529 118.438 15.2988 118.661 16.0234C118.903 15.2988 119.251 14.2598 119.707 12.9062C120.167 11.5527 120.441 10.7461 120.527 10.4863H121.751C121.833 10.7415 122.095 11.5505 122.537 12.9131C122.979 14.2712 123.319 15.3102 123.556 16.0303C123.77 15.3102 124.073 14.2734 124.465 12.9199C124.861 11.5664 125.098 10.7552 125.176 10.4863H126.399L124.068 17.5H122.886C122.826 17.3223 122.569 16.5452 122.113 15.1689C121.658 13.7881 121.311 12.7354 121.074 12.0107C120.828 12.7399 120.461 13.7881 119.974 15.1553C119.491 16.5179 119.215 17.2995 119.146 17.5H117.971ZM127.821 17.5V12.4277C127.821 12.1178 127.814 11.8011 127.801 11.4775C127.792 11.154 127.78 10.9079 127.767 10.7393L127.746 10.4863H129.045L129.059 11.5869C129.3 11.1859 129.637 10.8737 130.07 10.6504C130.508 10.4225 130.968 10.3086 131.451 10.3086C132.335 10.3086 132.987 10.5775 133.406 11.1152C133.826 11.6484 134.035 12.4596 134.035 13.5488V17.5H132.777V13.5557C132.777 12.7946 132.663 12.234 132.436 11.874C132.208 11.514 131.807 11.334 131.232 11.334C130.704 11.334 130.223 11.514 129.79 11.874C129.357 12.2295 129.122 12.6396 129.086 13.1045V17.5H127.821ZM137.139 13.3096H141.165C141.119 12.667 140.933 12.1725 140.604 11.8262C140.276 11.4798 139.839 11.3066 139.292 11.3066C138.718 11.3066 138.237 11.4844 137.85 11.8398C137.467 12.1953 137.23 12.6852 137.139 13.3096ZM139.449 17.6504C138.333 17.6504 137.446 17.32 136.79 16.6592C136.134 15.9938 135.806 15.112 135.806 14.0137C135.806 12.9336 136.12 12.0472 136.749 11.3545C137.382 10.6572 138.219 10.3086 139.258 10.3086C139.914 10.3086 140.475 10.4613 140.939 10.7666C141.409 11.0719 141.755 11.4867 141.979 12.0107C142.206 12.5348 142.32 13.1432 142.32 13.8359C142.32 13.9225 142.313 14.0342 142.3 14.1709H137.104C137.118 14.9548 137.344 15.5609 137.781 15.9893C138.219 16.4131 138.798 16.625 139.518 16.625C140.356 16.625 141.099 16.3652 141.746 15.8457L142.122 16.7754C141.37 17.3587 140.479 17.6504 139.449 17.6504ZM144.31 17.5V12.209C144.31 12.054 144.3 11.833 144.282 11.5459C144.269 11.2588 144.255 11.0104 144.241 10.8008L144.221 10.4863H145.554L145.567 11.5801C145.991 10.7415 146.616 10.3223 147.44 10.3223C147.7 10.3223 147.937 10.3496 148.151 10.4043L148.145 11.5186C147.876 11.4456 147.618 11.4092 147.372 11.4092C146.834 11.4092 146.401 11.5983 146.073 11.9766C145.745 12.3503 145.581 12.8903 145.581 13.5967V17.5H144.31Z" fill="#777777"/>
</svg>
