<svg width="30" height="30" viewBox="0 0 30 30" fill="none" xmlns="http://www.w3.org/2000/svg">
<path d="M14.998 0.5C23.0051 0.500013 29.4961 6.99102 29.4961 14.998C29.4961 23.0051 23.0051 29.4961 14.998 29.4961C6.99102 29.4961 0.500013 23.0051 0.5 14.998C0.5 6.99101 6.99101 0.5 14.998 0.5Z" stroke="white"/>
<path d="M16.3368 11.7057V10.2692C16.3368 9.56874 16.8038 9.40649 17.1322 9.40649C17.4607 9.40649 19.1465 9.40649 19.1465 9.40649V6.3317L16.3725 6.31982C13.2937 6.31982 12.5933 8.61504 12.5933 10.0832V11.7057H10.8125V13.8742V15.2949H12.6091C12.6091 19.363 12.6091 24.27 12.6091 24.27H16.1983C16.1983 24.27 16.1983 19.3155 16.1983 15.2949H18.8616L18.9922 13.8861L19.19 11.7057H16.3368Z" fill="white"/>
</svg>
