<svg width="30" height="30" viewBox="0 0 30 30" fill="none" xmlns="http://www.w3.org/2000/svg">
<path d="M15 0.5C23.0081 0.5 29.5 6.99187 29.5 15C29.5 23.0081 23.0081 29.5 15 29.5C6.99187 29.5 0.5 23.0081 0.5 15C0.5 6.99187 6.99187 0.5 15 0.5Z" stroke="white"/>
<path d="M22.7344 14.2404C22.6031 14.2404 22.4719 14.2404 22.3406 14.2404C22.3406 14.2123 22.3406 14.1842 22.3406 14.1654C22.3406 14.0623 22.3406 13.9779 22.3406 13.8936C22.3406 13.3967 22.35 12.8904 22.3312 12.3936C22.3312 12.3092 22.2469 12.1686 22.1906 12.1592C21.7312 12.1404 21.2812 12.1498 20.7937 12.1498C20.7937 12.7498 20.7937 13.3123 20.7937 13.8936C20.7937 14.0061 20.7937 14.1186 20.7937 14.2311C20.0906 14.2311 19.425 14.2311 18.7031 14.2311C18.7031 14.3904 18.7031 14.4936 18.7031 14.5967C18.7219 14.9717 18.7406 15.3561 18.75 15.7311C19.1156 15.7404 19.4906 15.7592 19.8562 15.7686C20.1656 15.7779 20.475 15.7686 20.8125 15.7686C20.8125 16.4904 20.8125 17.1561 20.8125 17.8311C21.3281 17.8311 21.8062 17.8311 22.3219 17.8311C22.3219 17.1467 22.3219 16.4811 22.3219 15.7686C23.0344 15.7686 23.7 15.7686 24.3844 15.7686C24.3844 15.3748 24.3844 14.9998 24.3844 14.6154C24.3844 14.4936 24.3844 14.3717 24.3844 14.2404C23.8406 14.2404 23.2875 14.2404 22.7344 14.2404Z" fill="white"/>
<path d="M16.7992 14.0624C15.4961 14.0811 14.1929 14.0717 12.8898 14.0717C12.5148 14.0717 12.1398 14.0624 11.7742 14.0811C11.6992 14.0811 11.5773 14.1655 11.5773 14.2217C11.5679 14.9717 11.5679 15.7217 11.5679 16.5186C12.6461 16.5186 13.6867 16.5186 14.7648 16.5186C14.7179 16.678 14.6992 16.7811 14.6617 16.8936C14.1742 18.3467 12.6742 19.0686 11.0617 18.8061C9.0648 18.478 7.81793 16.6311 8.17418 14.6249C8.22105 14.3436 8.3148 14.0717 8.4273 13.8186C9.08355 12.3655 10.7242 11.4842 12.3367 11.8405C12.9179 11.9624 13.4054 12.2436 13.8367 12.6186C14.4179 12.0374 14.9804 11.4655 15.5804 10.8561C15.5429 10.828 15.4867 10.7905 15.4304 10.7436C14.0242 9.55298 12.4023 9.11235 10.5929 9.41235C7.98668 9.83423 6.11168 11.8874 5.6898 14.2874C5.51168 15.3092 5.59605 16.3967 6.00855 17.4561C7.0023 20.0061 9.56168 21.553 12.2992 21.253C13.6304 21.103 14.8304 20.6249 15.7586 19.6311C17.1367 18.1686 17.4836 16.3967 17.2679 14.4561C17.2304 14.1186 17.0992 14.053 16.7992 14.0624Z" fill="white"/>
</svg>
