<svg width="30" height="30" viewBox="0 0 30 30" fill="none" xmlns="http://www.w3.org/2000/svg">
<path d="M14.62 29.24C22.6944 29.24 29.24 22.6944 29.24 14.62C29.24 6.5456 22.6944 0 14.62 0C6.5456 0 0 6.5456 0 14.62C0 22.6944 6.5456 29.24 14.62 29.24Z" fill="url(#paint0_linear_2_44288)"/>
<path d="M19.1562 9.11011C18.6062 9.11011 18.1562 9.56011 18.1562 10.1101C18.1562 10.6701 18.6062 11.1201 19.1562 11.1201C19.7162 11.1201 20.1662 10.6701 20.1662 10.1101C20.1562 9.56011 19.7062 9.11011 19.1562 9.11011Z" fill="white"/>
<path d="M14.6888 10.4001C12.3588 10.4001 10.4688 12.2901 10.4688 14.6201C10.4688 16.9501 12.3588 18.8401 14.6888 18.8401C17.0188 18.8401 18.9088 16.9501 18.9088 14.6201C18.9088 12.2901 17.0188 10.4001 14.6888 10.4001ZM14.6888 17.3301C13.1988 17.3301 11.9888 16.1201 11.9888 14.6301C11.9888 13.1401 13.1988 11.9301 14.6888 11.9301C16.1788 11.9301 17.3888 13.1401 17.3888 14.6301C17.3888 16.1201 16.1788 17.3301 14.6888 17.3301Z" fill="white"/>
<path d="M18.0369 23.19H11.1969C8.35687 23.19 6.04688 20.88 6.04688 18.04V11.2C6.04688 8.36005 8.35687 6.05005 11.1969 6.05005H18.0369C20.8769 6.05005 23.1869 8.36005 23.1869 11.2V18.04C23.1869 20.88 20.8769 23.19 18.0369 23.19ZM11.1969 7.66005C9.24687 7.66005 7.65688 9.25005 7.65688 11.2V18.04C7.65688 19.99 9.24687 21.58 11.1969 21.58H18.0369C19.9869 21.58 21.5769 19.99 21.5769 18.04V11.2C21.5769 9.25005 19.9869 7.66005 18.0369 7.66005H11.1969Z" fill="white"/>
<defs>
<linearGradient id="paint0_linear_2_44288" x1="24.9568" y1="4.2825" x2="4.27901" y2="24.9603" gradientUnits="userSpaceOnUse">
<stop offset="0.0011048" stop-color="#FBE18A"/>
<stop offset="0.2094" stop-color="#FCBB45"/>
<stop offset="0.3765" stop-color="#F75274"/>
<stop offset="0.5238" stop-color="#D53692"/>
<stop offset="0.7394" stop-color="#8F39CE"/>
<stop offset="1" stop-color="#5B4FE9"/>
</linearGradient>
</defs>
</svg>
