<svg width="30" height="30" viewBox="0 0 30 30" fill="none" xmlns="http://www.w3.org/2000/svg">
<path d="M14.62 29.24C22.6944 29.24 29.24 22.6944 29.24 14.62C29.24 6.5456 22.6944 0 14.62 0C6.54559 0 0 6.5456 0 14.62C0 22.6944 6.54559 29.24 14.62 29.24Z" fill="url(#paint0_linear_2_44282)"/>
<path d="M22.6988 9.61011C22.1888 9.84011 21.6288 9.98011 21.0888 10.0701C21.3488 10.0301 21.7288 9.56011 21.8788 9.37011C22.1088 9.08011 22.3089 8.75011 22.4188 8.39011C22.4289 8.36011 22.4389 8.33011 22.4188 8.31011C22.3889 8.30011 22.3589 8.30011 22.3289 8.32011C21.7189 8.65011 21.0889 8.88011 20.4188 9.05011C20.3588 9.06011 20.3189 9.05011 20.2889 9.02011C20.2289 8.96011 20.1788 8.90011 20.1188 8.85011C19.8388 8.61011 19.5388 8.42011 19.1888 8.28011C18.7388 8.10011 18.2488 8.02011 17.7688 8.05011C17.2988 8.08011 16.8389 8.21011 16.4188 8.43011C15.9988 8.65011 15.6289 8.95011 15.3289 9.32011C15.0189 9.70011 14.7989 10.1501 14.6789 10.6201C14.5689 11.0801 14.5789 11.5301 14.6489 11.9901C14.6589 12.0701 14.6489 12.0801 14.5789 12.0701C11.9489 11.6801 9.77885 10.7401 8.00885 8.73011C7.92885 8.64011 7.88885 8.64011 7.82885 8.74011C7.05885 9.90011 7.42885 11.7601 8.39885 12.6801C8.52885 12.8001 8.65885 12.9201 8.79885 13.0401C8.74885 13.0501 8.10885 12.9801 7.52885 12.6801C7.44885 12.6301 7.40885 12.6601 7.40885 12.7501C7.39885 12.8801 7.40885 12.9901 7.42885 13.1301C7.57885 14.3001 8.38885 15.3901 9.50885 15.8201C9.63885 15.8801 9.78885 15.9201 9.92885 15.9501C9.67885 16.0101 9.40885 16.0501 8.68885 15.9901C8.59885 15.9701 8.55885 16.0201 8.59885 16.1001C9.14885 17.5901 10.3289 18.0301 11.2089 18.2901C11.3289 18.3101 11.4489 18.3101 11.5689 18.3401C11.5589 18.3501 11.5588 18.3501 11.5488 18.3601C11.2588 18.8101 10.2388 19.1401 9.76885 19.3101C8.90885 19.6101 7.96885 19.7501 7.05885 19.6601C6.90885 19.6401 6.87885 19.6401 6.83885 19.6601C6.79885 19.6801 6.82885 19.7201 6.87885 19.7601C7.05885 19.8801 7.24885 19.9901 7.43885 20.0901C8.01885 20.4001 8.61885 20.6401 9.24885 20.8101C12.5089 21.7101 16.1688 21.0501 18.6188 18.6201C20.5388 16.7101 21.2089 14.0801 21.2089 11.4501C21.2089 11.3501 21.3289 11.2901 21.3989 11.2401C21.8989 10.8601 22.2989 10.4201 22.6688 9.91011C22.7488 9.80011 22.7489 9.70011 22.7489 9.66011C22.7489 9.65011 22.7489 9.65011 22.7489 9.65011C22.7689 9.57011 22.7688 9.58011 22.6988 9.61011Z" fill="white"/>
<defs>
<linearGradient id="paint0_linear_2_44282" x1="24.9632" y1="4.2825" x2="4.2855" y2="24.9603" gradientUnits="userSpaceOnUse">
<stop stop-color="#33CCFF"/>
<stop offset="1" stop-color="#337FFF"/>
</linearGradient>
</defs>
</svg>
