<svg width="30" height="30" viewBox="0 0 30 30" fill="none" xmlns="http://www.w3.org/2000/svg">
<path d="M14.62 29.24C22.6944 29.24 29.24 22.6944 29.24 14.62C29.24 6.5456 22.6944 0 14.62 0C6.54559 0 0 6.5456 0 14.62C0 22.6944 6.54559 29.24 14.62 29.24Z" fill="url(#paint0_linear_2_44285)"/>
<path d="M22.4531 12.5C22.4531 10.56 20.8831 8.98999 18.9431 8.98999H9.96312C8.02312 8.98999 6.45312 10.56 6.45312 12.5V16.68C6.45312 18.62 8.02312 20.19 9.96312 20.19H18.9431C20.8831 20.19 22.4531 18.62 22.4531 16.68V12.5ZM17.1731 14.9L13.1431 16.89C12.9831 16.98 12.4531 16.86 12.4531 16.68V12.59C12.4531 12.41 12.9931 12.29 13.1531 12.38L17.0031 14.48C17.1731 14.58 17.3431 14.81 17.1731 14.9Z" fill="white"/>
<defs>
<linearGradient id="paint0_linear_2_44285" x1="24.9628" y1="4.2825" x2="4.2851" y2="24.9603" gradientUnits="userSpaceOnUse">
<stop stop-color="#FF0000"/>
<stop offset="1" stop-color="#850000"/>
</linearGradient>
</defs>
</svg>
