<svg width="30" height="30" viewBox="0 0 30 30" fill="none" xmlns="http://www.w3.org/2000/svg">
<path d="M29.24 14.62C29.24 6.55 22.7 0 14.62 0C6.54 0 0 6.55 0 14.62C0 21.92 5.35 27.97 12.34 29.06V18.85H8.62V14.62H12.33V11.4C12.33 7.74 14.51 5.71 17.85 5.71C19.45 5.71 21.12 6 21.12 6V9.6H19.28C17.46 9.6 16.9 10.73 16.9 11.88V14.62H20.96L20.31 18.85H16.9V29.07C23.9 27.97 29.24 21.92 29.24 14.62Z" fill="url(#paint0_linear_2_44295)"/>
<path d="M20.3072 18.85L20.9572 14.62H16.8972V11.88C16.8972 10.72 17.4672 9.59996 19.2772 9.59996H21.1172V5.99996C21.1172 5.99996 19.4472 5.70996 17.8472 5.70996C14.5072 5.70996 12.3272 7.72996 12.3272 11.4V14.62H8.61719V18.85H12.3272V29.07C13.0672 29.19 13.8372 29.25 14.6072 29.25C15.3772 29.25 16.1472 29.19 16.8872 29.07V18.85H20.3072Z" fill="white"/>
<defs>
<linearGradient id="paint0_linear_2_44295" x1="4.2826" y1="4.2825" x2="24.9602" y2="24.9602" gradientUnits="userSpaceOnUse">
<stop stop-color="#4676ED"/>
<stop offset="0.1854" stop-color="#436DE4"/>
<stop offset="0.487" stop-color="#3C55CD"/>
<stop offset="0.8651" stop-color="#302EA8"/>
<stop offset="1" stop-color="#2B1E99"/>
</linearGradient>
</defs>
</svg>
