<svg width="30" height="30" viewBox="0 0 30 30" fill="none" xmlns="http://www.w3.org/2000/svg">
<path d="M14.62 29.24C22.6944 29.24 29.24 22.6944 29.24 14.62C29.24 6.5456 22.6944 0 14.62 0C6.54559 0 0 6.5456 0 14.62C0 22.6944 6.54559 29.24 14.62 29.24Z" fill="url(#paint0_linear_2_44299)"/>
<path d="M8.49354 11.8999H11.3235V20.9999H8.49354V11.8999ZM9.91354 7.37988C10.8235 7.37988 11.5535 8.10988 11.5535 9.01988C11.5535 9.91988 10.8235 10.6599 9.91354 10.6599C9.00354 10.6599 8.27354 9.91988 8.27354 9.01988C8.26354 8.10988 9.00354 7.37988 9.91354 7.37988Z" fill="white"/>
<path d="M13.1038 11.8999H15.8138V13.1399H15.8538C16.2338 12.4199 17.1538 11.6699 18.5338 11.6699C21.3938 11.6699 21.9238 13.5499 21.9238 15.9999V20.9999H19.0938V16.5799C19.0938 15.5199 19.0737 14.1699 17.6237 14.1699C16.1537 14.1699 15.9238 15.3199 15.9238 16.5099V20.9999H13.0938V11.8999H13.1038Z" fill="white"/>
<defs>
<linearGradient id="paint0_linear_2_44299" x1="24.9598" y1="4.2825" x2="4.282" y2="24.9603" gradientUnits="userSpaceOnUse">
<stop stop-color="#007AB5"/>
<stop offset="1" stop-color="#0046E5"/>
</linearGradient>
</defs>
</svg>
