<svg width="30" height="30" viewBox="0 0 30 30" fill="none" xmlns="http://www.w3.org/2000/svg">
<path d="M14.62 29.24C22.6944 29.24 29.24 22.6944 29.24 14.62C29.24 6.5456 22.6944 0 14.62 0C6.54559 0 0 6.5456 0 14.62C0 22.6944 6.54559 29.24 14.62 29.24Z" fill="url(#paint0_linear_2_44279)"/>
<path d="M5.67188 19.3501C5.67188 19.2601 5.67188 19.1601 5.67188 19.0701C5.78187 18.9401 5.91187 18.8201 6.09187 18.7901C7.56187 18.5001 8.55189 17.5601 9.29189 16.3301C9.91189 15.2901 9.81188 15.0601 8.66188 14.6501C8.59188 14.6301 8.53188 14.6101 8.46188 14.5801C8.21188 14.4801 7.97187 14.3701 7.76187 14.1901C7.24187 13.7401 7.55188 13.1001 8.16188 12.9501C8.60188 12.8401 8.99187 13.1301 9.42188 13.1801C9.71187 13.2201 9.82189 13.1201 9.79189 12.8101C9.70189 12.0201 9.70188 11.2301 9.74188 10.4301C9.81188 8.92008 10.5519 7.76008 11.8219 7.02008C13.6619 5.93008 15.5819 5.92008 17.4419 7.00008C18.6019 7.68008 19.3419 8.71008 19.5119 10.0801C19.6219 10.9801 19.5719 11.8701 19.5019 12.7701C19.4719 13.1601 19.5519 13.2301 19.9319 13.1401C20.4119 13.0301 20.8119 12.7801 21.3119 13.0001C21.5819 13.1201 21.8119 13.3701 21.8019 13.6601C21.8019 13.8601 21.6819 14.0401 21.5319 14.1701C21.3019 14.3701 21.0019 14.4801 20.7219 14.5901C20.5019 14.6801 20.2819 14.7501 20.0719 14.8401C19.6419 15.0401 19.5119 15.3101 19.7119 15.7401C20.4119 17.2301 21.4519 18.3601 23.1219 18.7501C23.3219 18.8001 23.4919 18.8801 23.6119 19.0501C23.6119 19.1401 23.6119 19.2401 23.6119 19.3301C23.4519 19.6601 23.1719 19.8401 22.8519 19.9601C22.5219 20.0801 22.1919 20.2201 21.8419 20.2501C21.3519 20.2801 21.1019 20.4901 21.0319 21.0001C20.9619 21.4801 20.8119 21.5501 20.3219 21.5101C20.2019 21.5001 20.0919 21.4801 19.9719 21.4601C19.0119 21.2901 18.1119 21.3901 17.3219 22.0201C17.1719 22.1401 17.0019 22.2501 16.8319 22.3601C15.4919 23.2301 14.1119 23.3301 12.7119 22.5101C12.3319 22.2901 11.9619 22.0301 11.5919 21.7901C11.2819 21.5901 10.9519 21.4801 10.5819 21.4201C10.0019 21.3301 9.44187 21.4601 8.87187 21.5201C8.58187 21.5501 8.30188 21.4701 8.28188 21.1701C8.24188 20.4401 7.80188 20.2701 7.19188 20.2001C6.91188 20.1701 6.62188 20.0501 6.36188 19.9401C6.08188 19.8301 5.81188 19.6501 5.67188 19.3501Z" fill="white"/>
<defs>
<linearGradient id="paint0_linear_2_44279" x1="24.9563" y1="4.2825" x2="4.2785" y2="24.9603" gradientUnits="userSpaceOnUse">
<stop stop-color="#FEFB01"/>
<stop offset="1" stop-color="#FCBB45"/>
</linearGradient>
</defs>
</svg>
